<svg xmlns="http://www.w3.org/2000/svg" viewBox="0 0 552.39 145.08"><defs><style>.cls-1,.cls-2{fill:#1d1d1b;}.cls-1{fill-rule:evenodd;}</style></defs><title>upb_logo_full [Konvertiert]</title><g id="Vordergrund"><path class="cls-1" d="M143.7,120.87V101.46h-4.6v18.13c0,3.58-1.65,5.49-5,5.49s-4.93-1.36-4.93-5.49V101.46h-4.64v19.45c0,4.33,2.28,8,9.57,8C140.18,128.9,143.7,125.82,143.7,120.87Z" transform="translate(-21.09 -15.96)"/><path class="cls-1" d="M169.89,128.43v-27h-4.37l.08,12.32c0,2.45.28,6.31.4,7.68l-.12.11a48.5,48.5,0,0,0-2.84-6.93l-6.73-13.18h-5.2v27h4.52l-.16-13.05c0-2.38-.08-5.23-.28-7.49l.12-.11a79.5,79.5,0,0,0,3.53,8l6.2,12.66Z" transform="translate(-21.09 -15.96)"/><rect class="cls-2" x="156.32" y="85.5" width="4.73" height="26.97"/><path class="cls-1" d="M208.72,101.46h-4.8l-5.09,15.05a51.24,51.24,0,0,0-1.68,5.65h-.08a40,40,0,0,0-1.44-5.42l-5-15.28h-5l9.33,27.09h4.28Z" transform="translate(-21.09 -15.96)"/><polygon class="cls-1" points="207.05 112.47 207.05 108.65 195.95 108.65 195.95 100.23 204.4 100.23 204.4 96.53 195.87 96.53 195.87 89.16 206.05 89.16 206.65 85.5 191.27 85.5 191.27 112.47 207.05 112.47"/><path class="cls-1" d="M252.92,128.43,248.83,122c-1.44-2.26-3.28-4.87-4.28-5.38,4.16,0,6.89-3.23,6.89-7.4s-2.81-7.72-9-7.72H234v27h4.52V116.78a2.36,2.36,0,0,1,1.8.82,29.71,29.71,0,0,1,4.73,6.66l2.4,4.17Zm-6.29-19.21a4.47,4.47,0,0,1-1.24,3.27c-.84.82-2.12,1.13-4.53,1.13H238.5v-8.53H241C245.11,105.09,246.63,106.49,246.63,109.22Z" transform="translate(-21.09 -15.96)"/><path class="cls-1" d="M275.17,120.29c0-4.06-2.8-6.55-6.81-7.68l-3.28-.94c-2.72-.78-3.68-1.63-3.68-3.31,0-2.22,1.8-3.66,4.52-3.66a12.15,12.15,0,0,1,6.53,2.06l2.08-3.15a15.66,15.66,0,0,0-8.77-2.58c-5.56,0-9.41,3.24-9.41,8a6.67,6.67,0,0,0,1.16,3.94c1,1.52,2.85,2.53,5.37,3.23l3,.82c2.84.78,4.13,2,4.13,4,0,2.69-2.05,4.28-5.45,4.28a14.37,14.37,0,0,1-7.49-2.22l-1.76,3.43a18.09,18.09,0,0,0,9.09,2.42C271.45,128.94,275.17,124.77,275.17,120.29Z" transform="translate(-21.09 -15.96)"/><rect class="cls-2" x="259.85" y="85.5" width="4.73" height="26.97"/><polygon class="cls-1" points="288 85.5 268.81 85.5 268.81 89.24 275.82 89.24 275.82 112.47 280.43 112.47 280.43 89.24 287.39 89.24 288 85.5"/><path class="cls-1" d="M327.54,97.64a2.71,2.71,0,1,0-2.73,2.73A2.76,2.76,0,0,0,327.54,97.64Zm-8.41,0a2.69,2.69,0,1,0-2.69,2.73A2.7,2.7,0,0,0,319.13,97.64Zm13.45,30.79-8.85-27h-5.32l-9.09,27h4.76l2.24-7.09h9l2.25,7.09Zm-8.33-10.83h-6.8c.64-1.8,3.48-11.5,3.48-11.5h0C321.17,107.15,324,117,324.25,117.6Z" transform="translate(-21.09 -15.96)"/><polygon class="cls-1" points="331.39 85.5 312.21 85.5 312.21 89.24 319.21 89.24 319.21 112.47 323.82 112.47 323.82 89.24 330.79 89.24 331.39 85.5"/><path class="cls-1" d="M382.58,109.53a7.49,7.49,0,0,0-3.81-6.78c-1.52-.9-3-1.29-7-1.29h-7.37v27h4.56V118.14h4.69C378.61,118.14,382.58,114.83,382.58,109.53Zm-5.09.27c0,3.2-1.56,4.76-5,4.76h-3.61v-9.47h3.61a5,5,0,0,1,3.84,1.32A4.66,4.66,0,0,1,377.49,109.8Z" transform="translate(-21.09 -15.96)"/><path class="cls-1" d="M405,128.43l-8.85-27h-5.32l-9.09,27h4.76l2.24-7.09h9l2.25,7.09Zm-8.33-10.83h-6.8c.64-1.8,3.48-11.5,3.48-11.5h0C393.55,107.15,396.35,117,396.63,117.6Z" transform="translate(-21.09 -15.96)"/><path class="cls-1" d="M428.06,115c0-4.21-1-7.45-3-9.75-2.61-2.88-5.69-3.82-10.9-3.82H408.4v27h6.84c5.17,0,7.57-.89,9.9-3.78C427,122.31,428.06,119.12,428.06,115Zm-5.13.46c0,6.12-2,9.28-6.84,9.28h-3V105H416c2.48,0,3.92.62,5.2,2.34C422.61,109.26,422.93,112,422.93,115.49Z" transform="translate(-21.09 -15.96)"/><polygon class="cls-1" points="428.46 112.47 428.46 108.65 417.37 108.65 417.37 100.23 425.82 100.23 425.82 96.53 417.29 96.53 417.29 89.16 427.46 89.16 428.06 85.5 412.69 85.5 412.69 112.47 428.46 112.47"/><path class="cls-1" d="M474.33,128.43,470.25,122c-1.44-2.26-3.28-4.87-4.28-5.38,4.16,0,6.88-3.23,6.88-7.4s-2.8-7.72-9-7.72h-8.45v27h4.53V116.78a2.36,2.36,0,0,1,1.8.82,30,30,0,0,1,4.73,6.66l2.4,4.17Zm-6.28-19.21a4.47,4.47,0,0,1-1.24,3.27c-.84.82-2.13,1.13-4.53,1.13h-2.36v-8.53h2.52C466.53,105.09,468.05,106.49,468.05,109.22Z" transform="translate(-21.09 -15.96)"/><path class="cls-1" d="M498.15,120.79c0-2.69-1.28-5.73-5.88-6.82,3.08-.85,4.76-3,4.76-5.88a5.93,5.93,0,0,0-3.12-5.3c-1.72-1.06-3.17-1.33-7.29-1.33h-7.33v27h8C494.35,128.43,498.15,126.13,498.15,120.79Zm-6-12a4,4,0,0,1-1.09,2.69c-.88.9-1.72,1-3.4,1h-3.92v-7.36h3.56a7.63,7.63,0,0,1,2.6.31A3.5,3.5,0,0,1,492.19,108.79Zm.88,11.57c0,2.42-1.53,4.37-5.05,4.37h-4.16v-8.54h4a8.29,8.29,0,0,1,2.56.24A4,4,0,0,1,493.07,120.36Z" transform="translate(-21.09 -15.96)"/><path class="cls-1" d="M525.06,115c0-7.88-3.76-13.92-11.57-13.92-6.93,0-11.58,5-11.58,13.88,0,8,3.89,13.91,11.78,13.91C520.9,128.86,525.06,123.4,525.06,115Zm-5.25.27c0,7.25-2.12,10.21-6.24,10.21-4.73,0-6.53-3.86-6.53-10.8,0-6.47,1.76-10.13,6.41-10.13C518.41,104.54,519.81,108.67,519.81,115.26Z" transform="translate(-21.09 -15.96)"/><path class="cls-1" d="M549.53,128.43,545.44,122c-1.44-2.26-3.28-4.87-4.28-5.38,4.16,0,6.89-3.23,6.89-7.4s-2.81-7.72-9-7.72h-8.45v27h4.52V116.78a2.36,2.36,0,0,1,1.8.82,29.39,29.39,0,0,1,4.73,6.66l2.4,4.17Zm-6.29-19.21a4.47,4.47,0,0,1-1.24,3.27c-.84.82-2.12,1.13-4.53,1.13h-2.36v-8.53h2.52C541.72,105.09,543.24,106.49,543.24,109.22Z" transform="translate(-21.09 -15.96)"/><path class="cls-1" d="M573.42,128.43v-27h-4.36l.08,12.32c0,2.45.28,6.31.4,7.68l-.12.11a48.5,48.5,0,0,0-2.84-6.93l-6.73-13.18h-5.21v27h4.53L559,115.38c0-2.38-.08-5.23-.28-7.49l.12-.11a81.35,81.35,0,0,0,3.52,8l6.21,12.66Z" transform="translate(-21.09 -15.96)"/><path class="cls-1" d="M138.31,144.64a6.31,6.31,0,0,0-1.4-4.52c-1.1-1.24-2.58-1.51-5.18-1.51h-3.68l-3.53,17.07h4.15c3.13,0,4.78-.64,6.45-2.35C137.07,151.33,138.31,147.5,138.31,144.64Zm-3,.07a14,14,0,0,1-2.07,6.87,4.4,4.4,0,0,1-3.8,1.78h-1.69l2.55-12.5h1.72a2.83,2.83,0,0,1,2.77,1.23A5,5,0,0,1,135.35,144.71Z" transform="translate(-21.09 -15.96)"/><path class="cls-1" d="M145.73,139.55a1.76,1.76,0,0,0-1.71-1.81,1.82,1.82,0,0,0,0,3.64A1.77,1.77,0,0,0,145.73,139.55Zm-1.12,3.36-2.74.42-2.53,12.35H142Z" transform="translate(-21.09 -15.96)"/><path class="cls-1" d="M156.54,146.22c0-2.22-1.48-3.34-3.82-3.34a5.5,5.5,0,0,0-4.08,1.71,10.12,10.12,0,0,0-2.7,6.84c0,3,1.72,4.57,4.3,4.57a7.1,7.1,0,0,0,4.92-1.78l-.82-1.68a5.1,5.1,0,0,1-3.41,1.36,2,2,0,0,1-2.19-2.29,8.62,8.62,0,0,1,.14-1.31c.21,0,.79.09,1.45.09,2.49,0,4.13-.56,5.14-1.58A3.59,3.59,0,0,0,156.54,146.22Zm-2.65.17a1.71,1.71,0,0,1-.5,1.24,4.16,4.16,0,0,1-3,.81c-.41,0-.91-.07-1.05-.07.52-2.35,1.72-3.46,3.08-3.46A1.33,1.33,0,0,1,153.89,146.39Z" transform="translate(-21.09 -15.96)"/><path class="cls-1" d="M178.37,138.61h-2.74l-2.32,11.24a5.77,5.77,0,0,1-.69,2.13,3.43,3.43,0,0,1-3.06,1.58c-1.4,0-2.26-.57-2.41-1.56a7.27,7.27,0,0,1,.24-2.3l2.29-11.09h-2.77L164.5,150.3a11.45,11.45,0,0,0-.21,2c0,2.37,1.91,3.68,4.87,3.68a7,7,0,0,0,4.72-1.43c1.27-.94,1.63-2,2.1-4.3Z" transform="translate(-21.09 -15.96)"/><path class="cls-1" d="M189.7,145.38a2.26,2.26,0,0,0-2.41-2.47,5.51,5.51,0,0,0-4.34,2.22,4.32,4.32,0,0,0-.22-2.35l-2.43,1a6.35,6.35,0,0,1-.05,3.21l-1.76,8.65h2.57l1.67-8.15c1.27-1.71,2.46-2.32,3.32-2.32.65,0,1,.27,1,1a5.87,5.87,0,0,1-.17,1.21l-1.7,8.28h2.61l1.83-8.94A6.26,6.26,0,0,0,189.7,145.38Z" transform="translate(-21.09 -15.96)"/><path class="cls-1" d="M197.81,139.55a1.77,1.77,0,0,0-1.72-1.81,1.82,1.82,0,0,0,0,3.64A1.78,1.78,0,0,0,197.81,139.55Zm-1.12,3.36-2.75.42-2.53,12.35h2.67Z" transform="translate(-21.09 -15.96)"/><path class="cls-1" d="M209.52,143.2l-2.84,0-3.46,6.57a25.47,25.47,0,0,0-1.22,2.67.12.12,0,0,0,0,.05c0-.72,0-1.83-.14-2.64l-.79-6.92-2.67.42,1.81,12.4h2.29Z" transform="translate(-21.09 -15.96)"/><path class="cls-1" d="M219.66,146.22c0-2.22-1.48-3.34-3.82-3.34a5.5,5.5,0,0,0-4.08,1.71,10.12,10.12,0,0,0-2.7,6.84c0,3,1.72,4.57,4.3,4.57a7.06,7.06,0,0,0,4.91-1.78l-.81-1.68a5.1,5.1,0,0,1-3.41,1.36,2,2,0,0,1-2.2-2.29,8.49,8.49,0,0,1,.15-1.31c.21,0,.79.09,1.45.09,2.49,0,4.13-.56,5.14-1.58A3.59,3.59,0,0,0,219.66,146.22Zm-2.65.17a1.71,1.71,0,0,1-.5,1.24,4.16,4.16,0,0,1-3,.81c-.41,0-.91-.07-1-.07.52-2.35,1.72-3.46,3.08-3.46A1.34,1.34,0,0,1,217,146.39Z" transform="translate(-21.09 -15.96)"/><path class="cls-1" d="M230,143.08a2.23,2.23,0,0,0-1-.2c-1.17,0-2.5.92-3.6,2.35a4.59,4.59,0,0,0-.19-2.45l-2.44,1a7,7,0,0,1-.09,3.51l-1.72,8.35h2.6l1.65-8c1.05-1.53,2-2.2,2.82-2.2a1.44,1.44,0,0,1,.83.2Z" transform="translate(-21.09 -15.96)"/><path class="cls-1" d="M239.22,143.82a7.18,7.18,0,0,0-3.77-1.06c-3.53,0-5.28,2.08-5.28,4.25a3,3,0,0,0,2.27,3l1.39.54c1.09.45,1.52.84,1.52,1.63,0,1-1,1.81-2.31,1.81a6.74,6.74,0,0,1-3.77-1.24l-1.05,2a8.1,8.1,0,0,0,4.46,1.31c3.56,0,5.58-2.1,5.58-4.67,0-1.48-1-2.37-2.45-3l-1.44-.57c-1-.37-1.28-.79-1.28-1.46,0-1,.93-1.53,2.19-1.53a5.48,5.48,0,0,1,2.89.87Z" transform="translate(-21.09 -15.96)"/><path class="cls-1" d="M246.52,139.55a1.77,1.77,0,0,0-1.72-1.81,1.82,1.82,0,1,0,1.72,1.81Zm-1.12,3.36-2.75.42-2.53,12.35h2.68Z" transform="translate(-21.09 -15.96)"/><path class="cls-1" d="M254.49,143.18H251.6c.24-1.19.64-2.64,1-3.71l-2.8.67a27.91,27.91,0,0,0-.78,3h-1.36l-.38,1.93h1.36l-1.46,7.11a9.55,9.55,0,0,0-.17,1.71c0,1.26.91,2.1,2.53,2.1a6.64,6.64,0,0,0,2.51-.52v-1.68a3.13,3.13,0,0,1-1.22.25c-.76,0-1.12-.25-1.12-1a6.8,6.8,0,0,1,.14-1.21l1.36-6.72h2.32Z" transform="translate(-21.09 -15.96)"/><path class="cls-1" d="M266,140.14a1.61,1.61,0,1,0-1.6,1.68A1.63,1.63,0,0,0,266,140.14Zm-5,0a1.63,1.63,0,0,0-1.6-1.65,1.67,1.67,0,1,0,1.6,1.65Zm4.46,3.68a7,7,0,0,0-3.74-.94,6.29,6.29,0,0,0-4.8,2,10.62,10.62,0,0,0-2.55,7.09c0,2.67,1.26,4,3.15,4a4.29,4.29,0,0,0,3.62-1.93,2.53,2.53,0,0,0,.91,2l2.15-1.65c-.6-.67-.74-1.31-.43-2.82l1-4.94C264.94,145.8,265.27,144.51,265.48,143.82Zm-2.93,1.46-1.29,6.13c-.55,1.26-1.77,2.39-2.86,2.39-.89,0-1.32-.51-1.32-1.87a9.68,9.68,0,0,1,1.58-5.51,3.13,3.13,0,0,1,2.77-1.39A2.44,2.44,0,0,1,262.55,145.28Z" transform="translate(-21.09 -15.96)"/><path class="cls-1" d="M274.65,143.18h-2.89c.24-1.19.64-2.64,1-3.71l-2.79.67a27.83,27.83,0,0,0-.79,3H267.8l-.38,1.93h1.36l-1.46,7.11a9.55,9.55,0,0,0-.17,1.71c0,1.26.91,2.1,2.53,2.1a6.64,6.64,0,0,0,2.51-.52v-1.68a3.13,3.13,0,0,1-1.22.25c-.76,0-1.12-.25-1.12-1a6.8,6.8,0,0,1,.14-1.21l1.36-6.72h2.32Z" transform="translate(-21.09 -15.96)"/><path class="cls-1" d="M292.92,137.94l-2.51-.44-.86,4.2c-.09.42-.31,1.55-.31,1.68a5.38,5.38,0,0,0-2.31-.4,5.79,5.79,0,0,0-4,1.76,10.15,10.15,0,0,0-2.65,6.89c0,2.82,1.15,4.3,3.56,4.3a4.45,4.45,0,0,0,3.56-1.83,2.62,2.62,0,0,0,.45,1.8l2.24-.54c-.33-.59-.43-1.38.12-4Zm-4.2,7.74-1.22,5.85a4.1,4.1,0,0,1-3.05,2.22c-1,0-1.46-.71-1.46-2.07a9.92,9.92,0,0,1,1.65-5.36,2.86,2.86,0,0,1,2.19-1.14A3,3,0,0,1,288.72,145.68Z" transform="translate(-21.09 -15.96)"/><path class="cls-1" d="M304,146.22c0-2.22-1.48-3.34-3.82-3.34a5.5,5.5,0,0,0-4.08,1.71,10.12,10.12,0,0,0-2.7,6.84c0,3,1.72,4.57,4.3,4.57a7.1,7.1,0,0,0,4.92-1.78l-.82-1.68a5.1,5.1,0,0,1-3.41,1.36,2,2,0,0,1-2.2-2.29,8.49,8.49,0,0,1,.15-1.31c.21,0,.79.09,1.45.09,2.49,0,4.13-.56,5.14-1.58A3.59,3.59,0,0,0,304,146.22Zm-2.65.17a1.71,1.71,0,0,1-.5,1.24,4.16,4.16,0,0,1-3,.81c-.41,0-.91-.07-1.05-.07.52-2.35,1.72-3.46,3.08-3.46A1.34,1.34,0,0,1,301.39,146.39Z" transform="translate(-21.09 -15.96)"/><path class="cls-1" d="M314.35,143.08a2.23,2.23,0,0,0-1-.2c-1.16,0-2.5.92-3.6,2.35a4.59,4.59,0,0,0-.19-2.45l-2.43,1a7.14,7.14,0,0,1-.1,3.51l-1.72,8.35h2.6l1.65-8c1.05-1.53,2-2.2,2.82-2.2a1.44,1.44,0,0,1,.83.2Z" transform="translate(-21.09 -15.96)"/><polygon class="cls-1" points="304.37 122.65 301.6 122.65 298.07 139.72 300.86 139.72 304.37 122.65"/><path class="cls-1" d="M337.17,145.38a2.26,2.26,0,0,0-2.41-2.47,5.51,5.51,0,0,0-4.34,2.22,4.42,4.42,0,0,0-.22-2.35l-2.43,1a6.35,6.35,0,0,1,0,3.21L326,155.68h2.58l1.67-8.15c1.27-1.71,2.46-2.32,3.32-2.32.64,0,1,.27,1,1a5.7,5.7,0,0,1-.16,1.21l-1.7,8.28h2.6l1.84-8.94A6.26,6.26,0,0,0,337.17,145.38Z" transform="translate(-21.09 -15.96)"/><path class="cls-1" d="M349,138.26a4.67,4.67,0,0,0-2.56-.71,4.45,4.45,0,0,0-2.41.59,4.61,4.61,0,0,0-2.08,3.34l-.28,1.7H340.5l-.38,1.93h1.19l-2,10.65a9.27,9.27,0,0,1-1.71,3.87l1.76,1.41a10.2,10.2,0,0,0,2.53-5.21l2-10.72h2.41l1.1-1.93h-3.17l.33-1.85a1.89,1.89,0,0,1,1.84-1.76,2.9,2.9,0,0,1,1.48.47Z" transform="translate(-21.09 -15.96)"/><path class="cls-1" d="M357.44,147.28c0-2.74-1.5-4.4-4.27-4.4-4,0-6.85,3.81-6.85,8.63,0,2.86,1.52,4.47,4.2,4.47C355,156,357.44,151.85,357.44,147.28Zm-2.84-.1c0,3-1.27,6.75-3.6,6.75-1.17,0-1.87-.67-1.87-2.18,0-2.84,1.25-6.79,3.63-6.79C353.84,145,354.6,145.5,354.6,147.18Z" transform="translate(-21.09 -15.96)"/><path class="cls-1" d="M368,143.08a2.23,2.23,0,0,0-1-.2c-1.17,0-2.5.92-3.6,2.35a4.59,4.59,0,0,0-.19-2.45l-2.44,1a7,7,0,0,1-.09,3.51L359,155.68h2.6l1.65-8c1.05-1.53,2-2.2,2.81-2.2a1.46,1.46,0,0,1,.84.2Z" transform="translate(-21.09 -15.96)"/><path class="cls-1" d="M384.4,145.4a2.28,2.28,0,0,0-2.34-2.52,5.76,5.76,0,0,0-4.18,2.23c-.07-1.46-.81-2.2-2.15-2.2a5.68,5.68,0,0,0-4.13,2.2,4.65,4.65,0,0,0-.19-2.33l-2.43,1a7,7,0,0,1,0,3.14l-1.79,8.72h2.53l1.67-8.15c1.1-1.48,2.32-2.32,3.18-2.32.64,0,.86.29.86.84a8,8,0,0,1-.22,1.33l-1.69,8.3H376l1.69-8.18c1-1.35,2.17-2.29,3.06-2.29.67,0,1,.27,1,.89a6,6,0,0,1-.14,1.13l-1.74,8.45h2.57L384.2,147A9.14,9.14,0,0,0,384.4,145.4Z" transform="translate(-21.09 -15.96)"/><path class="cls-1" d="M397.16,143.82a7,7,0,0,0-3.75-.94,6.31,6.31,0,0,0-4.8,2,10.62,10.62,0,0,0-2.55,7.09c0,2.67,1.26,4,3.15,4a4.31,4.31,0,0,0,3.63-1.93,2.52,2.52,0,0,0,.9,2l2.15-1.65c-.59-.67-.74-1.31-.43-2.82l1-4.94C396.61,145.8,396.94,144.51,397.16,143.82Zm-2.94,1.46-1.29,6.13c-.55,1.26-1.76,2.39-2.86,2.39-.88,0-1.31-.51-1.31-1.87a9.75,9.75,0,0,1,1.57-5.51A3.14,3.14,0,0,1,393.1,145,2.41,2.41,0,0,1,394.22,145.28Z" transform="translate(-21.09 -15.96)"/><path class="cls-1" d="M406.32,143.18h-2.89c.24-1.19.65-2.64,1-3.71l-2.79.67a27.83,27.83,0,0,0-.79,3h-1.36l-.38,1.93h1.36L399,152.22a9.45,9.45,0,0,0-.16,1.71c0,1.26.9,2.1,2.53,2.1a6.59,6.59,0,0,0,2.5-.52v-1.68a3.09,3.09,0,0,1-1.21.25c-.77,0-1.13-.25-1.13-1a6.09,6.09,0,0,1,.15-1.21l1.36-6.72h2.31Z" transform="translate(-21.09 -15.96)"/><path class="cls-1" d="M412.57,139.55a1.77,1.77,0,0,0-1.72-1.81,1.82,1.82,0,0,0,0,3.64A1.77,1.77,0,0,0,412.57,139.55Zm-1.12,3.36-2.75.42-2.53,12.35h2.68Z" transform="translate(-21.09 -15.96)"/><path class="cls-1" d="M423.85,147.28c0-2.74-1.5-4.4-4.27-4.4-4,0-6.85,3.81-6.85,8.63,0,2.86,1.53,4.47,4.2,4.47C421.37,156,423.85,151.85,423.85,147.28Zm-2.84-.1c0,3-1.26,6.75-3.6,6.75-1.17,0-1.86-.67-1.86-2.18,0-2.84,1.24-6.79,3.62-6.79C420.25,145,421,145.5,421,147.18Z" transform="translate(-21.09 -15.96)"/><path class="cls-1" d="M436.59,145.38a2.26,2.26,0,0,0-2.41-2.47,5.51,5.51,0,0,0-4.34,2.22,4.42,4.42,0,0,0-.22-2.35l-2.43,1a6.46,6.46,0,0,1-.05,3.21l-1.77,8.65H428l1.67-8.15c1.27-1.71,2.46-2.32,3.32-2.32.64,0,.95.27.95,1a5.7,5.7,0,0,1-.16,1.21l-1.7,8.28h2.6l1.84-8.94A6.26,6.26,0,0,0,436.59,145.38Z" transform="translate(-21.09 -15.96)"/><path class="cls-1" d="M448.44,143.82a7.15,7.15,0,0,0-3.77-1.06c-3.53,0-5.27,2.08-5.27,4.25a3,3,0,0,0,2.26,3l1.39.54c1.1.45,1.53.84,1.53,1.63,0,1-1,1.81-2.32,1.81a6.74,6.74,0,0,1-3.77-1.24l-1.05,2a8.1,8.1,0,0,0,4.46,1.31c3.56,0,5.59-2.1,5.59-4.67,0-1.48-1-2.37-2.46-3l-1.43-.57c-1-.37-1.29-.79-1.29-1.46,0-1,.93-1.53,2.19-1.53a5.48,5.48,0,0,1,2.89.87Z" transform="translate(-21.09 -15.96)"/><path class="cls-1" d="M461.3,143.82a8.65,8.65,0,0,0-4.46-1,6.45,6.45,0,0,0-4.51,1.83,10.12,10.12,0,0,0-2.7,7c0,2.82,1.17,4.25,3.56,4.25a4.18,4.18,0,0,0,3.32-1.5c-.07.22-.36,1.55-.43,1.82-.46,1.76-1.48,2.55-3.51,2.55a6.36,6.36,0,0,1-3.53-.94l-.91,1.93a8.19,8.19,0,0,0,4.22,1.11c3.13,0,5.59-1.14,6.35-4.65.22-.93.39-2.34.79-4.24l1.27-6.11C460.92,145.13,461.23,144,461.3,143.82Zm-3.05,1.61L457,151.58a3.84,3.84,0,0,1-3,2.22c-1,0-1.58-.71-1.58-2.17a9.9,9.9,0,0,1,1.74-5.39,3.45,3.45,0,0,1,2.49-1.16A3,3,0,0,1,458.25,145.43Z" transform="translate(-21.09 -15.96)"/><path class="cls-1" d="M473.48,146.22c0-2.22-1.48-3.34-3.82-3.34a5.5,5.5,0,0,0-4.08,1.71,10.12,10.12,0,0,0-2.7,6.84c0,3,1.72,4.57,4.3,4.57a7.07,7.07,0,0,0,4.91-1.78l-.81-1.68a5.12,5.12,0,0,1-3.41,1.36,2,2,0,0,1-2.2-2.29,10.12,10.12,0,0,1,.14-1.31c.22,0,.79.09,1.46.09,2.48,0,4.13-.56,5.13-1.58A3.6,3.6,0,0,0,473.48,146.22Zm-2.65.17a1.71,1.71,0,0,1-.5,1.24,4.18,4.18,0,0,1-3,.81c-.4,0-.9-.07-1.05-.07.53-2.35,1.72-3.46,3.08-3.46A1.34,1.34,0,0,1,470.83,146.39Z" transform="translate(-21.09 -15.96)"/><path class="cls-1" d="M484.86,143.82a7.18,7.18,0,0,0-3.77-1.06c-3.54,0-5.28,2.08-5.28,4.25a3,3,0,0,0,2.27,3l1.38.54c1.1.45,1.53.84,1.53,1.63,0,1-1,1.81-2.31,1.81a6.8,6.8,0,0,1-3.78-1.24l-1,2a8.16,8.16,0,0,0,4.47,1.31c3.55,0,5.58-2.1,5.58-4.67,0-1.48-1-2.37-2.46-3l-1.43-.57c-.95-.37-1.29-.79-1.29-1.46,0-1,.93-1.53,2.2-1.53a5.51,5.51,0,0,1,2.89.87Z" transform="translate(-21.09 -15.96)"/><path class="cls-1" d="M496.65,146.22c0-2.22-1.48-3.34-3.82-3.34a5.5,5.5,0,0,0-4.08,1.71,10.12,10.12,0,0,0-2.7,6.84c0,3,1.72,4.57,4.3,4.57a7.07,7.07,0,0,0,4.91-1.78l-.81-1.68A5.12,5.12,0,0,1,491,153.9a2,2,0,0,1-2.2-2.29,10.12,10.12,0,0,1,.14-1.31c.22,0,.79.09,1.46.09,2.48,0,4.13-.56,5.13-1.58A3.6,3.6,0,0,0,496.65,146.22Zm-2.65.17a1.71,1.71,0,0,1-.5,1.24,4.18,4.18,0,0,1-3,.81c-.4,0-.9-.07-1-.07.53-2.35,1.72-3.46,3.08-3.46A1.34,1.34,0,0,1,494,146.39Z" transform="translate(-21.09 -15.96)"/><path class="cls-1" d="M503.59,137.35l-2.77.94a8.44,8.44,0,0,1-.19,3.68l-2.13,10.3a10.59,10.59,0,0,0-.23,1.76,1.84,1.84,0,0,0,2.1,1.92,4.7,4.7,0,0,0,1.76-.32L502,154a1.08,1.08,0,0,1-.41.05c-.38,0-.57-.23-.57-.67a9,9,0,0,1,.29-1.75l2.07-10.09A11.75,11.75,0,0,0,503.59,137.35Z" transform="translate(-21.09 -15.96)"/><path class="cls-1" d="M510.31,137.35l-2.77.94a8.29,8.29,0,0,1-.19,3.68l-2.12,10.3A9.8,9.8,0,0,0,505,154a1.84,1.84,0,0,0,2.1,1.92,4.75,4.75,0,0,0,1.77-.32l-.15-1.65a1,1,0,0,1-.4.05c-.38,0-.58-.23-.58-.67a10,10,0,0,1,.29-1.75l2.08-10.09A11.94,11.94,0,0,0,510.31,137.35Z" transform="translate(-21.09 -15.96)"/><path class="cls-1" d="M521.47,143.82a7.12,7.12,0,0,0-3.77-1.06c-3.53,0-5.27,2.08-5.27,4.25a3,3,0,0,0,2.27,3l1.38.54c1.1.45,1.53.84,1.53,1.63,0,1-1,1.81-2.32,1.81a6.74,6.74,0,0,1-3.77-1.24l-1,2a8.1,8.1,0,0,0,4.46,1.31c3.56,0,5.59-2.1,5.59-4.67,0-1.48-1-2.37-2.46-3l-1.43-.57c-1-.37-1.29-.79-1.29-1.46,0-1,.93-1.53,2.2-1.53a5.48,5.48,0,0,1,2.88.87Z" transform="translate(-21.09 -15.96)"/><path class="cls-1" d="M532.6,144.14a4.16,4.16,0,0,0-3.08-1.31,5.5,5.5,0,0,0-3.82,1.46,10.48,10.48,0,0,0-3.08,7.41c0,2.72,1.36,4.28,4.06,4.28a6.33,6.33,0,0,0,4.27-1.66l-1-1.7a4.25,4.25,0,0,1-2.74,1.31c-1.15,0-1.79-.74-1.79-2.23a11,11,0,0,1,1.67-5.63,2.57,2.57,0,0,1,2-1,2.85,2.85,0,0,1,2.07.91Z" transform="translate(-21.09 -15.96)"/><path class="cls-1" d="M544.47,145.31a2.37,2.37,0,0,0-2.69-2.45A5.74,5.74,0,0,0,537.5,145c.15-.44.39-1.43.48-1.87l.36-1.73a10.32,10.32,0,0,0,.19-4.08l-2.67.94a8.47,8.47,0,0,1-.22,3.65l-2.81,13.74h2.6l1.67-8.15c1-1.36,2.55-2.37,3.53-2.37a1,1,0,0,1,1.12,1.06,7.35,7.35,0,0,1-.14,1l-1.72,8.42h2.58l1.81-8.84A6.81,6.81,0,0,0,544.47,145.31Z" transform="translate(-21.09 -15.96)"/><path class="cls-1" d="M557.12,143.82a7,7,0,0,0-3.75-.94,6.29,6.29,0,0,0-4.8,2A10.62,10.62,0,0,0,546,152c0,2.67,1.26,4,3.15,4a4.31,4.31,0,0,0,3.63-1.93,2.52,2.52,0,0,0,.9,2l2.15-1.65c-.6-.67-.74-1.31-.43-2.82l1-4.94C556.57,145.8,556.9,144.51,557.12,143.82Zm-2.94,1.46-1.29,6.13c-.55,1.26-1.77,2.39-2.86,2.39-.89,0-1.32-.51-1.32-1.87a9.68,9.68,0,0,1,1.58-5.51,3.13,3.13,0,0,1,2.77-1.39A2.44,2.44,0,0,1,554.18,145.28Z" transform="translate(-21.09 -15.96)"/><path class="cls-1" d="M568.33,138.26a4.63,4.63,0,0,0-2.55-.71,4.45,4.45,0,0,0-2.41.59,4.61,4.61,0,0,0-2.08,3.34l-.29,1.7h-1.14l-.38,1.93h1.19l-2,10.65a9.27,9.27,0,0,1-1.72,3.87l1.77,1.41a10.2,10.2,0,0,0,2.53-5.21l2-10.72h2.41l1.1-1.93h-3.18l.34-1.85a1.88,1.88,0,0,1,1.83-1.76,2.84,2.84,0,0,1,1.48.47Z" transform="translate(-21.09 -15.96)"/><path class="cls-1" d="M573.48,143.18h-2.89c.24-1.19.64-2.64,1-3.71l-2.79.67a27.83,27.83,0,0,0-.79,3h-1.36l-.38,1.93h1.36l-1.46,7.11a9.55,9.55,0,0,0-.17,1.71c0,1.26.91,2.1,2.53,2.1a6.64,6.64,0,0,0,2.51-.52v-1.68a3.13,3.13,0,0,1-1.22.25c-.76,0-1.12-.25-1.12-1a6.8,6.8,0,0,1,.14-1.21l1.36-6.72h2.32Z" transform="translate(-21.09 -15.96)"/><polygon class="cls-1" points="63.25 0 46.32 13.27 46.32 74.84 83.25 109.1 63.25 62.92 63.25 0"/><polygon class="cls-1" points="85.42 46.34 69.78 33.77 69.78 58.25 85.42 108.36 85.42 46.34"/><polygon class="cls-1" points="39.79 33.12 23.46 46.34 23.46 93.33 81.76 110.61 39.79 80.11 39.79 33.12"/><polygon class="cls-1" points="81.33 112.53 0 112.53 0 79.46 16.97 66.19 16.97 99.31 81.33 112.53"/></g></svg>