<?xml version="1.0" encoding="UTF-8" standalone="no"?>
<!DOCTYPE svg PUBLIC "-//W3C//DTD SVG 1.1//EN" "http://www.w3.org/Graphics/SVG/1.1/DTD/svg11.dtd">
<svg version="1.1" xmlns="http://www.w3.org/2000/svg" xmlns:xl="http://www.w3.org/1999/xlink" xmlns:dc="http://purl.org/dc/elements/1.1/" viewBox="-2.5 -2.5 480 480" width="480" height="480">
  <defs/>
  <g id="Canvas_1" fill="none" stroke="none" stroke-dasharray="none" fill-opacity="1" stroke-opacity="1">
    <title>Canvas 1</title>
    <g id="Canvas_1_Layer_1">
      <title>Layer 1</title>
      <g id="Group_2">
        <title>Canvas_1</title>
        <g id="Group_29">
          <title>Canvas_1_Zettel</title>
          <g id="Group_105">
            <title>Graphic_3</title>
            <g id="Graphic_106">
              <path d="M 15.984644 8526513e-20 L 403.84733 8526513e-20 C 412.6754 8526513e-20 419.83197 7.119155 419.83197 15.901077 L 419.83197 461.5989 C 419.83197 470.38084 412.6754 477.5 403.84733 477.5 L 15.984644 477.5 C 7.156569 477.5 2842171e-20 470.38084 2842171e-20 461.5989 L 5684342e-20 15.901077 C 5684342e-20 7.119155 7.156569 8526513e-20 15.984644 8526513e-20 Z" stroke="#333" stroke-linecap="round" stroke-linejoin="round" stroke-width="5"/>
            </g>
          </g>
          <g id="Group_102">
            <title>Graphic_18</title>
            <g id="Graphic_104">
              <path d="M 48.189 42.091087 C 50.266195 42.091087 51.95009 43.76618 51.95009 45.832517 L 51.95009 201.10186 C 51.95009 203.1682 50.266195 204.8433 48.189 204.8433 C 46.111805 204.8433 44.427907 203.1682 44.427907 201.10186 L 44.427907 45.832517 C 44.427907 43.76618 46.111805 42.091087 48.189 42.091087 Z" fill="#333"/>
            </g>
            <g id="Graphic_103">
              <path d="M 48.189 42.091087 C 50.266195 42.091087 51.95009 43.76618 51.95009 45.832517 L 51.95009 201.10186 C 51.95009 203.1682 50.266195 204.8433 48.189 204.8433 C 46.111805 204.8433 44.427907 203.1682 44.427907 201.10186 L 44.427907 45.832517 C 44.427907 43.76618 46.111805 42.091087 48.189 42.091087 Z" stroke="gray" stroke-linecap="round" stroke-linejoin="round" stroke-width="1"/>
            </g>
          </g>
          <g id="Group_99">
            <title>Graphic_19</title>
            <g id="Graphic_101">
              <path d="M 59.942415 42.091087 C 60.98101 42.091087 61.82296 42.928634 61.82296 43.9618 L 61.82296 202.97258 C 61.82296 204.00574 60.98101 204.8433 59.942415 204.8433 C 58.90382 204.8433 58.06187 204.00574 58.06187 202.97258 L 58.06187 43.9618 C 58.06187 42.928634 58.90382 42.091087 59.942415 42.091087 Z" fill="#333"/>
            </g>
            <g id="Graphic_100">
              <path d="M 59.942415 42.091087 C 60.98101 42.091087 61.82296 42.928634 61.82296 43.9618 L 61.82296 202.97258 C 61.82296 204.00574 60.98101 204.8433 59.942415 204.8433 C 58.90382 204.8433 58.06187 204.00574 58.06187 202.97258 L 58.06187 43.9618 C 58.06187 42.928634 58.90382 42.091087 59.942415 42.091087 Z" stroke="gray" stroke-linecap="round" stroke-linejoin="round" stroke-width="1"/>
            </g>
          </g>
          <g id="Group_96">
            <title>Graphic_20</title>
            <g id="Graphic_98">
              <path d="M 68.87501 42.091087 C 69.91361 42.091087 70.75556 42.928634 70.75556 43.9618 L 70.75556 202.97258 C 70.75556 204.00574 69.91361 204.8433 68.87501 204.8433 C 67.83641 204.8433 66.99446 204.00574 66.99446 202.97258 L 66.99446 43.9618 C 66.99446 42.928634 67.83641 42.091087 68.87501 42.091087 Z" fill="#333"/>
            </g>
            <g id="Graphic_97">
              <path d="M 68.87501 42.091087 C 69.91361 42.091087 70.75556 42.928634 70.75556 43.9618 L 70.75556 202.97258 C 70.75556 204.00574 69.91361 204.8433 68.87501 204.8433 C 67.83641 204.8433 66.99446 204.00574 66.99446 202.97258 L 66.99446 43.9618 C 66.99446 42.928634 67.83641 42.091087 68.87501 42.091087 Z" stroke="gray" stroke-linecap="round" stroke-linejoin="round" stroke-width="1"/>
            </g>
          </g>
          <g id="Group_93">
            <title>Graphic_21</title>
            <g id="Graphic_95">
              <path d="M 84.38952 42.091087 C 85.42811 42.091087 86.27006 42.928634 86.27006 43.9618 L 86.27006 202.97258 C 86.27006 204.00574 85.42811 204.8433 84.38952 204.8433 C 83.35092 204.8433 82.50897 204.00574 82.50897 202.97258 L 82.50897 43.9618 C 82.50897 42.928634 83.35092 42.091087 84.38952 42.091087 Z" fill="#333"/>
            </g>
            <g id="Graphic_94">
              <path d="M 84.38952 42.091087 C 85.42811 42.091087 86.27006 42.928634 86.27006 43.9618 L 86.27006 202.97258 C 86.27006 204.00574 85.42811 204.8433 84.38952 204.8433 C 83.35092 204.8433 82.50897 204.00574 82.50897 202.97258 L 82.50897 43.9618 C 82.50897 42.928634 83.35092 42.091087 84.38952 42.091087 Z" stroke="gray" stroke-linecap="round" stroke-linejoin="round" stroke-width="1"/>
            </g>
          </g>
          <g id="Group_90">
            <title>Graphic_22</title>
            <g id="Graphic_92">
              <path d="M 102.72484 42.091087 C 104.80204 42.091087 106.48594 43.76618 106.48594 45.832517 L 106.48594 201.10186 C 106.48594 203.1682 104.80204 204.8433 102.72484 204.8433 C 100.64765 204.8433 98.96375 203.1682 98.96375 201.10186 L 98.96375 45.832517 C 98.96375 43.76618 100.64765 42.091087 102.72484 42.091087 Z" fill="#333"/>
            </g>
            <g id="Graphic_91">
              <path d="M 102.72484 42.091087 C 104.80204 42.091087 106.48594 43.76618 106.48594 45.832517 L 106.48594 201.10186 C 106.48594 203.1682 104.80204 204.8433 102.72484 204.8433 C 100.64765 204.8433 98.96375 203.1682 98.96375 201.10186 L 98.96375 45.832517 C 98.96375 43.76618 100.64765 42.091087 102.72484 42.091087 Z" stroke="gray" stroke-linecap="round" stroke-linejoin="round" stroke-width="1"/>
            </g>
          </g>
          <g id="Group_87">
            <title>Graphic_23</title>
            <g id="Graphic_89">
              <path d="M 114.47826 42.091087 C 115.51686 42.091087 116.3588 42.928634 116.3588 43.9618 L 116.3588 202.97258 C 116.3588 204.00574 115.51686 204.8433 114.47826 204.8433 C 113.43966 204.8433 112.59771 204.00574 112.59771 202.97258 L 112.59771 43.9618 C 112.59771 42.928634 113.43966 42.091087 114.47826 42.091087 Z" fill="#333"/>
            </g>
            <g id="Graphic_88">
              <path d="M 114.47826 42.091087 C 115.51686 42.091087 116.3588 42.928634 116.3588 43.9618 L 116.3588 202.97258 C 116.3588 204.00574 115.51686 204.8433 114.47826 204.8433 C 113.43966 204.8433 112.59771 204.00574 112.59771 202.97258 L 112.59771 43.9618 C 112.59771 42.928634 113.43966 42.091087 114.47826 42.091087 Z" stroke="gray" stroke-linecap="round" stroke-linejoin="round" stroke-width="1"/>
            </g>
          </g>
          <g id="Group_84">
            <title>Graphic_25</title>
            <g id="Graphic_86">
              <path d="M 143.62673 42.091087 C 144.66532 42.091087 145.50727 42.928634 145.50727 43.9618 L 145.50727 202.97258 C 145.50727 204.00574 144.66532 204.8433 143.62673 204.8433 C 142.58813 204.8433 141.74618 204.00574 141.74618 202.97258 L 141.74618 43.9618 C 141.74618 42.928634 142.58813 42.091087 143.62673 42.091087 Z" fill="#333"/>
            </g>
            <g id="Graphic_85">
              <path d="M 143.62673 42.091087 C 144.66532 42.091087 145.50727 42.928634 145.50727 43.9618 L 145.50727 202.97258 C 145.50727 204.00574 144.66532 204.8433 143.62673 204.8433 C 142.58813 204.8433 141.74618 204.00574 141.74618 202.97258 L 141.74618 43.9618 C 141.74618 42.928634 142.58813 42.091087 143.62673 42.091087 Z" stroke="gray" stroke-linecap="round" stroke-linejoin="round" stroke-width="1"/>
            </g>
          </g>
          <g id="Group_81">
            <title>Graphic_26</title>
            <g id="Graphic_83">
              <path d="M 151.61905 42.091087 C 152.65765 42.091087 153.4996 42.928634 153.4996 43.9618 L 153.4996 202.97258 C 153.4996 204.00574 152.65765 204.8433 151.61905 204.8433 C 150.58045 204.8433 149.7385 204.00574 149.7385 202.97258 L 149.7385 43.9618 C 149.7385 42.928634 150.58045 42.091087 151.61905 42.091087 Z" fill="#333"/>
            </g>
            <g id="Graphic_82">
              <path d="M 151.61905 42.091087 C 152.65765 42.091087 153.4996 42.928634 153.4996 43.9618 L 153.4996 202.97258 C 153.4996 204.00574 152.65765 204.8433 151.61905 204.8433 C 150.58045 204.8433 149.7385 204.00574 149.7385 202.97258 L 149.7385 43.9618 C 149.7385 42.928634 150.58045 42.091087 151.61905 42.091087 Z" stroke="gray" stroke-linecap="round" stroke-linejoin="round" stroke-width="1"/>
            </g>
          </g>
          <g id="Group_78">
            <title>Graphic_27</title>
            <g id="Graphic_80">
              <path d="M 172.7752 42.091087 C 174.8524 42.091087 176.53629 43.76618 176.53629 45.832517 L 176.53629 201.10186 C 176.53629 203.1682 174.8524 204.8433 172.7752 204.8433 C 170.698 204.8433 169.0141 203.1682 169.0141 201.10186 L 169.0141 45.832517 C 169.0141 43.76618 170.698 42.091087 172.7752 42.091087 Z" fill="#333"/>
            </g>
            <g id="Graphic_79">
              <path d="M 172.7752 42.091087 C 174.8524 42.091087 176.53629 43.76618 176.53629 45.832517 L 176.53629 201.10186 C 176.53629 203.1682 174.8524 204.8433 172.7752 204.8433 C 170.698 204.8433 169.0141 203.1682 169.0141 201.10186 L 169.0141 45.832517 C 169.0141 43.76618 170.698 42.091087 172.7752 42.091087 Z" stroke="gray" stroke-linecap="round" stroke-linejoin="round" stroke-width="1"/>
            </g>
          </g>
          <g id="Group_75">
            <title>Graphic_28</title>
            <g id="Graphic_77">
              <path d="M 184.5286 42.091087 C 186.6058 42.091087 188.2897 43.76618 188.2897 45.832517 L 188.2897 201.10186 C 188.2897 203.1682 186.6058 204.8433 184.5286 204.8433 C 182.45141 204.8433 180.76752 203.1682 180.76752 201.10186 L 180.76752 45.832517 C 180.76752 43.76618 182.45141 42.091087 184.5286 42.091087 Z" fill="#333"/>
            </g>
            <g id="Graphic_76">
              <path d="M 184.5286 42.091087 C 186.6058 42.091087 188.2897 43.76618 188.2897 45.832517 L 188.2897 201.10186 C 188.2897 203.1682 186.6058 204.8433 184.5286 204.8433 C 182.45141 204.8433 180.76752 203.1682 180.76752 201.10186 L 180.76752 45.832517 C 180.76752 43.76618 182.45141 42.091087 184.5286 42.091087 Z" stroke="gray" stroke-linecap="round" stroke-linejoin="round" stroke-width="1"/>
            </g>
          </g>
          <g id="Group_72">
            <title>Graphic_29</title>
            <g id="Graphic_74">
              <path d="M 201.92366 42.091087 C 202.96226 42.091087 203.8042 42.928634 203.8042 43.9618 L 203.8042 202.97258 C 203.8042 204.00574 202.96226 204.8433 201.92366 204.8433 C 200.88507 204.8433 200.04312 204.00574 200.04312 202.97258 L 200.04312 43.9618 C 200.04312 42.928634 200.88507 42.091087 201.92366 42.091087 Z" fill="#333"/>
            </g>
            <g id="Graphic_73">
              <path d="M 201.92366 42.091087 C 202.96226 42.091087 203.8042 42.928634 203.8042 43.9618 L 203.8042 202.97258 C 203.8042 204.00574 202.96226 204.8433 201.92366 204.8433 C 200.88507 204.8433 200.04312 204.00574 200.04312 202.97258 L 200.04312 43.9618 C 200.04312 42.928634 200.88507 42.091087 201.92366 42.091087 Z" stroke="gray" stroke-linecap="round" stroke-linejoin="round" stroke-width="1"/>
            </g>
          </g>
          <g id="Group_69">
            <title>Graphic_30</title>
            <g id="Graphic_71">
              <path d="M 209.91598 42.091087 C 210.95458 42.091087 211.79653 42.928634 211.79653 43.9618 L 211.79653 202.97258 C 211.79653 204.00574 210.95458 204.8433 209.91598 204.8433 C 208.87739 204.8433 208.03544 204.00574 208.03544 202.97258 L 208.03544 43.9618 C 208.03544 42.928634 208.87739 42.091087 209.91598 42.091087 Z" fill="#333"/>
            </g>
            <g id="Graphic_70">
              <path d="M 209.91598 42.091087 C 210.95458 42.091087 211.79653 42.928634 211.79653 43.9618 L 211.79653 202.97258 C 211.79653 204.00574 210.95458 204.8433 209.91598 204.8433 C 208.87739 204.8433 208.03544 204.00574 208.03544 202.97258 L 208.03544 43.9618 C 208.03544 42.928634 208.87739 42.091087 209.91598 42.091087 Z" stroke="gray" stroke-linecap="round" stroke-linejoin="round" stroke-width="1"/>
            </g>
          </g>
          <g id="Group_66">
            <title>Graphic_31</title>
            <g id="Graphic_68">
              <path d="M 225.4305 42.091087 C 227.5077 42.091087 229.19158 43.76618 229.19158 45.832517 L 229.19158 201.10186 C 229.19158 203.1682 227.5077 204.8433 225.4305 204.8433 C 223.3533 204.8433 221.6694 203.1682 221.6694 201.10186 L 221.6694 45.832517 C 221.6694 43.76618 223.3533 42.091087 225.4305 42.091087 Z" fill="#333"/>
            </g>
            <g id="Graphic_67">
              <path d="M 225.4305 42.091087 C 227.5077 42.091087 229.19158 43.76618 229.19158 45.832517 L 229.19158 201.10186 C 229.19158 203.1682 227.5077 204.8433 225.4305 204.8433 C 223.3533 204.8433 221.6694 203.1682 221.6694 201.10186 L 221.6694 45.832517 C 221.6694 43.76618 223.3533 42.091087 225.4305 42.091087 Z" stroke="gray" stroke-linecap="round" stroke-linejoin="round" stroke-width="1"/>
            </g>
          </g>
          <g id="Group_63">
            <title>Graphic_32</title>
            <g id="Graphic_65">
              <path d="M 237.1839 42.091087 C 238.2225 42.091087 239.06445 42.928634 239.06445 43.9618 L 239.06445 202.97258 C 239.06445 204.00574 238.2225 204.8433 237.1839 204.8433 C 236.1453 204.8433 235.30336 204.00574 235.30336 202.97258 L 235.30336 43.9618 C 235.30336 42.928634 236.1453 42.091087 237.1839 42.091087 Z" fill="#333"/>
            </g>
            <g id="Graphic_64">
              <path d="M 237.1839 42.091087 C 238.2225 42.091087 239.06445 42.928634 239.06445 43.9618 L 239.06445 202.97258 C 239.06445 204.00574 238.2225 204.8433 237.1839 204.8433 C 236.1453 204.8433 235.30336 204.00574 235.30336 202.97258 L 235.30336 43.9618 C 235.30336 42.928634 236.1453 42.091087 237.1839 42.091087 Z" stroke="gray" stroke-linecap="round" stroke-linejoin="round" stroke-width="1"/>
            </g>
          </g>
          <g id="Group_60">
            <title>Graphic_33</title>
            <g id="Graphic_62">
              <path d="M 252.6984 42.091087 C 254.7756 42.091087 256.4595 43.76618 256.4595 45.832517 L 256.4595 201.10186 C 256.4595 203.1682 254.7756 204.8433 252.6984 204.8433 C 250.62122 204.8433 248.93732 203.1682 248.93732 201.10186 L 248.93732 45.832517 C 248.93732 43.76618 250.62122 42.091087 252.6984 42.091087 Z" fill="#333"/>
            </g>
            <g id="Graphic_61">
              <path d="M 252.6984 42.091087 C 254.7756 42.091087 256.4595 43.76618 256.4595 45.832517 L 256.4595 201.10186 C 256.4595 203.1682 254.7756 204.8433 252.6984 204.8433 C 250.62122 204.8433 248.93732 203.1682 248.93732 201.10186 L 248.93732 45.832517 C 248.93732 43.76618 250.62122 42.091087 252.6984 42.091087 Z" stroke="gray" stroke-linecap="round" stroke-linejoin="round" stroke-width="1"/>
            </g>
          </g>
          <g id="Group_57">
            <title>Graphic_34</title>
            <g id="Graphic_59">
              <path d="M 264.45183 42.091087 C 265.49043 42.091087 266.33238 42.928634 266.33238 43.9618 L 266.33238 202.97258 C 266.33238 204.00574 265.49043 204.8433 264.45183 204.8433 C 263.41323 204.8433 262.57128 204.00574 262.57128 202.97258 L 262.57128 43.9618 C 262.57128 42.928634 263.41323 42.091087 264.45183 42.091087 Z" fill="#333"/>
            </g>
            <g id="Graphic_58">
              <path d="M 264.45183 42.091087 C 265.49043 42.091087 266.33238 42.928634 266.33238 43.9618 L 266.33238 202.97258 C 266.33238 204.00574 265.49043 204.8433 264.45183 204.8433 C 263.41323 204.8433 262.57128 204.00574 262.57128 202.97258 L 262.57128 43.9618 C 262.57128 42.928634 263.41323 42.091087 264.45183 42.091087 Z" stroke="gray" stroke-linecap="round" stroke-linejoin="round" stroke-width="1"/>
            </g>
          </g>
          <g id="Group_54">
            <title>Graphic_37</title>
            <g id="Graphic_56">
              <path d="M 129.0525 42.091087 C 130.09109 42.091087 130.93304 42.928634 130.93304 43.9618 L 130.93304 202.97258 C 130.93304 204.00574 130.09109 204.8433 129.0525 204.8433 C 128.0139 204.8433 127.17195 204.00574 127.17195 202.97258 L 127.17195 43.9618 C 127.17195 42.928634 128.0139 42.091087 129.0525 42.091087 Z" fill="#333"/>
            </g>
            <g id="Graphic_55">
              <path d="M 129.0525 42.091087 C 130.09109 42.091087 130.93304 42.928634 130.93304 43.9618 L 130.93304 202.97258 C 130.93304 204.00574 130.09109 204.8433 129.0525 204.8433 C 128.0139 204.8433 127.17195 204.00574 127.17195 202.97258 L 127.17195 43.9618 C 127.17195 42.928634 128.0139 42.091087 129.0525 42.091087 Z" stroke="gray" stroke-linecap="round" stroke-linejoin="round" stroke-width="1"/>
            </g>
          </g>
          <g id="Group_51">
            <title>Graphic_39</title>
            <g id="Graphic_53">
              <path d="M 373.5235 102.42165 C 373.5235 104.48798 371.8396 106.16308 369.76242 106.16308 L 293.6003 106.16308 C 291.5231 106.16308 289.8392 104.48798 289.8392 102.42165 C 289.8392 100.35531 291.5231 98.68022 293.6003 98.68022 L 369.76242 98.68022 C 371.8396 98.68022 373.5235 100.35531 373.5235 102.42165 Z" fill="#333"/>
            </g>
            <g id="Graphic_52">
              <path d="M 373.5235 102.42165 C 373.5235 104.48798 371.8396 106.16308 369.76242 106.16308 L 293.6003 106.16308 C 291.5231 106.16308 289.8392 104.48798 289.8392 102.42165 C 289.8392 100.35531 291.5231 98.68022 293.6003 98.68022 L 369.76242 98.68022 C 371.8396 98.68022 373.5235 100.35531 373.5235 102.42165 Z" stroke="gray" stroke-linecap="round" stroke-linejoin="round" stroke-width="1"/>
            </g>
          </g>
          <g id="Group_48">
            <title>Graphic_40</title>
            <g id="Graphic_50">
              <path d="M 358.47915 146.38345 C 358.47915 148.44978 356.79525 150.12488 354.71805 150.12488 L 293.6003 150.12488 C 291.5231 150.12488 289.8392 148.44978 289.8392 146.38345 C 289.8392 144.31711 291.5231 142.64202 293.6003 142.64202 L 354.71805 142.64202 C 356.79525 142.64202 358.47915 144.31711 358.47915 146.38345 Z" fill="#333"/>
            </g>
            <g id="Graphic_49">
              <path d="M 358.47915 146.38345 C 358.47915 148.44978 356.79525 150.12488 354.71805 150.12488 L 293.6003 150.12488 C 291.5231 150.12488 289.8392 148.44978 289.8392 146.38345 C 289.8392 144.31711 291.5231 142.64202 293.6003 142.64202 L 354.71805 142.64202 C 356.79525 142.64202 358.47915 144.31711 358.47915 146.38345 Z" stroke="gray" stroke-linecap="round" stroke-linejoin="round" stroke-width="1"/>
            </g>
          </g>
          <g id="Group_45">
            <title>Graphic_41</title>
            <g id="Graphic_47">
              <path d="M 376.81447 190.34525 C 376.81447 192.41159 375.13057 194.08668 373.0534 194.08668 L 293.6003 194.08668 C 291.5231 194.08668 289.8392 192.41159 289.8392 190.34525 C 289.8392 188.27891 291.5231 186.60382 293.6003 186.60382 L 373.0534 186.60382 C 375.13057 186.60382 376.81447 188.27891 376.81447 190.34525 Z" fill="#333"/>
            </g>
            <g id="Graphic_46">
              <path d="M 376.81447 190.34525 C 376.81447 192.41159 375.13057 194.08668 373.0534 194.08668 L 293.6003 194.08668 C 291.5231 194.08668 289.8392 192.41159 289.8392 190.34525 C 289.8392 188.27891 291.5231 186.60382 293.6003 186.60382 L 373.0534 186.60382 C 375.13057 186.60382 376.81447 188.27891 376.81447 190.34525 Z" stroke="gray" stroke-linecap="round" stroke-linejoin="round" stroke-width="1"/>
            </g>
          </g>
          <g id="Group_42">
            <title>Graphic_42</title>
            <g id="Graphic_44">
              <path d="M 320.07486 243.66063 C 320.07486 245.72696 318.39098 247.40206 316.31377 247.40206 L 44.662976 247.40206 C 42.58578 247.40206 40.901883 245.72696 40.901883 243.66063 C 40.901883 241.5943 42.58578 239.9192 44.662976 239.9192 L 316.31377 239.9192 C 318.39098 239.9192 320.07486 241.5943 320.07486 243.66063 Z" fill="#333"/>
            </g>
            <g id="Graphic_43">
              <path d="M 320.07486 243.66063 C 320.07486 245.72696 318.39098 247.40206 316.31377 247.40206 L 44.662976 247.40206 C 42.58578 247.40206 40.901883 245.72696 40.901883 243.66063 C 40.901883 241.5943 42.58578 239.9192 44.662976 239.9192 L 316.31377 239.9192 C 318.39098 239.9192 320.07486 241.5943 320.07486 243.66063 Z" stroke="gray" stroke-linecap="round" stroke-linejoin="round" stroke-width="1"/>
            </g>
          </g>
          <g id="Group_39">
            <title>Graphic_43</title>
            <g id="Graphic_41">
              <path d="M 296.4211 296.976 C 296.4211 299.04234 294.73722 300.71743 292.66002 300.71743 L 44.662976 300.71743 C 42.58578 300.71743 40.901883 299.04234 40.901883 296.976 C 40.901883 294.90967 42.58578 293.23457 44.662976 293.23457 L 292.66002 293.23457 C 294.73722 293.23457 296.4211 294.90967 296.4211 296.976 Z" fill="#333"/>
            </g>
            <g id="Graphic_40">
              <path d="M 296.4211 296.976 C 296.4211 299.04234 294.73722 300.71743 292.66002 300.71743 L 44.662976 300.71743 C 42.58578 300.71743 40.901883 299.04234 40.901883 296.976 C 40.901883 294.90967 42.58578 293.23457 44.662976 293.23457 L 292.66002 293.23457 C 294.73722 293.23457 296.4211 294.90967 296.4211 296.976 Z" stroke="gray" stroke-linecap="round" stroke-linejoin="round" stroke-width="1"/>
            </g>
          </g>
          <g id="Group_36">
            <title>Graphic_44</title>
            <g id="Graphic_38">
              <path d="M 296.4211 350.2914 C 296.4211 352.3577 294.73722 354.0328 292.66002 354.0328 L 44.662976 354.0328 C 42.58578 354.0328 40.901883 352.3577 40.901883 350.2914 C 40.901883 348.22505 42.58578 346.54995 44.662976 346.54995 L 292.66002 346.54995 C 294.73722 346.54995 296.4211 348.22505 296.4211 350.2914 Z" fill="#333"/>
            </g>
            <g id="Graphic_37">
              <path d="M 296.4211 350.2914 C 296.4211 352.3577 294.73722 354.0328 292.66002 354.0328 L 44.662976 354.0328 C 42.58578 354.0328 40.901883 352.3577 40.901883 350.2914 C 40.901883 348.22505 42.58578 346.54995 44.662976 346.54995 L 292.66002 346.54995 C 294.73722 346.54995 296.4211 348.22505 296.4211 350.2914 Z" stroke="gray" stroke-linecap="round" stroke-linejoin="round" stroke-width="1"/>
            </g>
          </g>
          <g id="Group_33">
            <title>Graphic_45</title>
            <g id="Graphic_35">
              <path d="M 337.323 403.60676 C 337.323 405.6731 335.6391 407.3482 333.5619 407.3482 L 44.662976 407.3482 C 42.58578 407.3482 40.901883 405.6731 40.901883 403.60676 C 40.901883 401.5404 42.58578 399.86533 44.662976 399.86533 L 333.5619 399.86533 C 335.6391 399.86533 337.323 401.5404 337.323 403.60676 Z" fill="#333"/>
            </g>
            <g id="Graphic_34">
              <path d="M 337.323 403.60676 C 337.323 405.6731 335.6391 407.3482 333.5619 407.3482 L 44.662976 407.3482 C 42.58578 407.3482 40.901883 405.6731 40.901883 403.60676 C 40.901883 401.5404 42.58578 399.86533 44.662976 399.86533 L 333.5619 399.86533 C 335.6391 399.86533 337.323 401.5404 337.323 403.60676 Z" stroke="gray" stroke-linecap="round" stroke-linejoin="round" stroke-width="1"/>
            </g>
          </g>
          <g id="Group_30">
            <title>Graphic_46</title>
            <g id="Graphic_32">
              <path d="M 373.5235 49.10627 C 373.5235 51.172604 371.8396 52.8477 369.76242 52.8477 L 293.6003 52.8477 C 291.5231 52.8477 289.8392 51.172604 289.8392 49.10627 C 289.8392 47.03993 291.5231 45.36484 293.6003 45.36484 L 369.76242 45.36484 C 371.8396 45.36484 373.5235 47.03993 373.5235 49.10627 Z" fill="#333"/>
            </g>
            <g id="Graphic_31">
              <path d="M 373.5235 49.10627 C 373.5235 51.172604 371.8396 52.8477 369.76242 52.8477 L 293.6003 52.8477 C 291.5231 52.8477 289.8392 51.172604 289.8392 49.10627 C 289.8392 47.03993 291.5231 45.36484 293.6003 45.36484 L 369.76242 45.36484 C 371.8396 45.36484 373.5235 47.03993 373.5235 49.10627 Z" stroke="gray" stroke-linecap="round" stroke-linejoin="round" stroke-width="1"/>
            </g>
          </g>
        </g>
        <g id="Group_3">
          <title>Canvas_1_Stift</title>
          <g id="Group_4">
            <title>Group_60</title>
            <g id="Group_27">
              <title>Graphic_47</title>
              <g id="Graphic_28">
                <path d="M 263.9811 384.2093 L 393.299 255.56745 L 414.9074 277.06288 L 285.5895 405.7047 Z" fill="#f0bf5e"/>
              </g>
            </g>
            <g id="Group_25">
              <title>Graphic_48</title>
              <g id="Graphic_26">
                <path d="M 285.5895 405.7047 L 414.9074 277.06288 L 436.5158 298.5583 L 307.19787 427.2001 Z" fill="#d8af62"/>
              </g>
            </g>
            <g id="Group_23">
              <title>Graphic_50</title>
              <g id="Graphic_24">
                <path d="M 399.94773 248.95348 L 431.52925 217.5371 C 435.2012 213.8843 441.15473 213.8843 444.8267 217.5371 L 453.1376 225.80456 C 456.8096 229.45736 456.8096 235.37972 453.1376 239.03252 L 421.55615 270.4489 C 417.88414 274.1017 411.93067 274.1017 408.25866 270.4489 L 399.94773 262.18143 C 396.27575 258.52863 396.27575 252.60627 399.94773 248.95348 Z" fill="#f15d4f"/>
              </g>
            </g>
            <g id="Group_21">
              <title>Graphic_51</title>
              <g id="Graphic_22">
                <path d="M 421.55615 270.4489 L 453.1376 239.03252 C 456.8096 235.37972 462.7631 235.37972 466.4351 239.03252 L 474.746 247.29998 C 478.418 250.95277 478.418 256.87514 474.746 260.52793 L 443.1645 291.94432 C 439.4925 295.59712 433.53905 295.59712 429.86704 291.94432 L 421.55615 283.67686 C 417.88414 280.02405 417.88414 274.1017 421.55615 270.4489 Z" fill="#d76154"/>
              </g>
            </g>
            <g id="Group_19">
              <title>Graphic_52</title>
              <g id="Graphic_20">
                <path d="M 393.299 255.56745 L 417.1317 231.85933 L 438.7401 253.35477 L 414.9074 277.06288 Z" fill="#f05d4e"/>
              </g>
            </g>
            <g id="Group_17">
              <title>Graphic_53</title>
              <g id="Graphic_18">
                <path d="M 414.9074 277.06288 L 438.7401 253.35477 L 460.34853 274.85018 L 436.5158 298.5583 Z" fill="#d76154"/>
              </g>
            </g>
            <g id="Group_15">
              <title>Graphic_54</title>
              <g id="Graphic_16">
                <path d="M 438.7401 253.35477 L 459.78634 232.41854 L 474.0811 246.6386 L 453.0349 267.57482 Z" fill="#d76154"/>
              </g>
            </g>
            <g id="Group_13">
              <title>Graphic_55</title>
              <g id="Graphic_14">
                <path d="M 424.44533 239.1347 L 445.49155 218.19848 L 459.78634 232.41854 L 438.7401 253.35477 Z" fill="#f05d4e"/>
              </g>
            </g>
            <g id="Group_11">
              <title>Graphic_56</title>
              <g id="Graphic_12">
                <path d="M 263.9811 384.2093 L 251.01608 440.0974 L 285.5895 405.7047 Z" fill="#dfcfc3"/>
              </g>
            </g>
            <g id="Group_9">
              <title>Graphic_57</title>
              <g id="Graphic_10">
                <path d="M 307.19787 427.2001 L 251.01608 440.0974 L 285.5895 405.7047 Z" fill="#cabbb1"/>
              </g>
            </g>
            <g id="Group_7">
              <title>Graphic_58</title>
              <g id="Graphic_8">
                <path d="M 247.9879 438.3477 L 254.23772 432.13053 C 255.70652 430.6694 258.0879 430.6694 259.5567 432.13053 C 261.0255 433.59165 261.0255 435.9606 259.5567 437.4217 L 253.3069 443.63884 C 251.8381 445.09996 249.4567 445.09996 247.9879 443.63884 C 246.5191 442.1777 246.5191 439.8088 247.9879 438.3477 Z" fill="#ce2c00"/>
              </g>
            </g>
            <g id="Group_5">
              <title>Graphic_59</title>
              <g id="Graphic_6">
                <path d="M 247.32303 439.00907 L 243.3338 448.26864 L 252.64203 444.30023 Z" fill="#ce2c00"/>
              </g>
            </g>
          </g>
        </g>
      </g>
    </g>
  </g>
</svg>
