<?xml version="1.0" encoding="UTF-8" standalone="no"?>
<!DOCTYPE svg PUBLIC "-//W3C//DTD SVG 1.1//EN" "http://www.w3.org/Graphics/SVG/1.1/DTD/svg11.dtd">
<svg xmlns:dc="http://purl.org/dc/elements/1.1/" xmlns:xl="http://www.w3.org/1999/xlink" xmlns="http://www.w3.org/2000/svg" version="1.1" viewBox="-2.5 -2.5 510.33115 515.5" width="510.33115" height="515.5">
  <defs/>
  <g id="Canvas_1" fill="none" fill-opacity="1" stroke="none" stroke-opacity="1" stroke-dasharray="none">
    <title>Canvas 1</title>
    <g id="Canvas_1_Zettel">
      <title>Zettel</title>
      <g id="Graphic_3">
        <path d="M 17 0 L 429.5 0 C 438.88884 5749007e-22 446.5 7.611159 446.5 17 L 446.5 493.5 C 446.5 502.88884 438.88884 510.5 429.5 510.5 L 17 510.5 C 7.611159 510.5 11498014e-22 502.88884 0 493.5 L 2842171e-20 17 C 2957151e-20 7.611159 7.611159 -5749007e-22 17 0 Z" stroke="#333" stroke-linecap="round" stroke-linejoin="round" stroke-width="5"/>
      </g>
      <g id="Graphic_18">
        <path d="M 51.25 45 L 51.25 45 C 53.45914 45 55.25 46.79086 55.25 49 L 55.25 215 C 55.25 217.20914 53.45914 219 51.25 219 L 51.25 219 C 49.04086 219 47.25 217.20914 47.25 215 L 47.25 49 C 47.25 46.79086 49.04086 45 51.25 45 Z" fill="#333"/>
        <path d="M 51.25 45 L 51.25 45 C 53.45914 45 55.25 46.79086 55.25 49 L 55.25 215 C 55.25 217.20914 53.45914 219 51.25 219 L 51.25 219 C 49.04086 219 47.25 217.20914 47.25 215 L 47.25 49 C 47.25 46.79086 49.04086 45 51.25 45 Z" stroke="gray" stroke-linecap="round" stroke-linejoin="round" stroke-width="1"/>
      </g>
      <g id="Graphic_19">
        <path d="M 63.75 45 L 63.75 45 C 64.85457 45 65.75 45.89543 65.75 47 L 65.75 217 C 65.75 218.10457 64.85457 219 63.75 219 L 63.75 219 C 62.64543 219 61.75 218.10457 61.75 217 L 61.75 47 C 61.75 45.89543 62.64543 45 63.75 45 Z" fill="#333"/>
        <path d="M 63.75 45 L 63.75 45 C 64.85457 45 65.75 45.89543 65.75 47 L 65.75 217 C 65.75 218.10457 64.85457 219 63.75 219 L 63.75 219 C 62.64543 219 61.75 218.10457 61.75 217 L 61.75 47 C 61.75 45.89543 62.64543 45 63.75 45 Z" stroke="gray" stroke-linecap="round" stroke-linejoin="round" stroke-width="1"/>
      </g>
      <g id="Graphic_20">
        <path d="M 73.25 45 L 73.25 45 C 74.35457 45 75.25 45.89543 75.25 47 L 75.25 217 C 75.25 218.10457 74.35457 219 73.25 219 L 73.25 219 C 72.14543 219 71.25 218.10457 71.25 217 L 71.25 47 C 71.25 45.89543 72.14543 45 73.25 45 Z" fill="#333"/>
        <path d="M 73.25 45 L 73.25 45 C 74.35457 45 75.25 45.89543 75.25 47 L 75.25 217 C 75.25 218.10457 74.35457 219 73.25 219 L 73.25 219 C 72.14543 219 71.25 218.10457 71.25 217 L 71.25 47 C 71.25 45.89543 72.14543 45 73.25 45 Z" stroke="gray" stroke-linecap="round" stroke-linejoin="round" stroke-width="1"/>
      </g>
      <g id="Graphic_21">
        <path d="M 89.75 45 L 89.75 45 C 90.85457 45 91.75 45.89543 91.75 47 L 91.75 217 C 91.75 218.10457 90.85457 219 89.75 219 L 89.75 219 C 88.64543 219 87.75 218.10457 87.75 217 L 87.75 47 C 87.75 45.89543 88.64543 45 89.75 45 Z" fill="#333"/>
        <path d="M 89.75 45 L 89.75 45 C 90.85457 45 91.75 45.89543 91.75 47 L 91.75 217 C 91.75 218.10457 90.85457 219 89.75 219 L 89.75 219 C 88.64543 219 87.75 218.10457 87.75 217 L 87.75 47 C 87.75 45.89543 88.64543 45 89.75 45 Z" stroke="gray" stroke-linecap="round" stroke-linejoin="round" stroke-width="1"/>
      </g>
      <g id="Graphic_22">
        <path d="M 109.25 45 L 109.25 45 C 111.45914 45 113.25 46.79086 113.25 49 L 113.25 215 C 113.25 217.20914 111.45914 219 109.25 219 L 109.25 219 C 107.04086 219 105.25 217.20914 105.25 215 L 105.25 49 C 105.25 46.79086 107.04086 45 109.25 45 Z" fill="#333"/>
        <path d="M 109.25 45 L 109.25 45 C 111.45914 45 113.25 46.79086 113.25 49 L 113.25 215 C 113.25 217.20914 111.45914 219 109.25 219 L 109.25 219 C 107.04086 219 105.25 217.20914 105.25 215 L 105.25 49 C 105.25 46.79086 107.04086 45 109.25 45 Z" stroke="gray" stroke-linecap="round" stroke-linejoin="round" stroke-width="1"/>
      </g>
      <g id="Graphic_23">
        <path d="M 121.75 45 L 121.75 45 C 122.85457 45 123.75 45.89543 123.75 47 L 123.75 217 C 123.75 218.10457 122.85457 219 121.75 219 L 121.75 219 C 120.64543 219 119.75 218.10457 119.75 217 L 119.75 47 C 119.75 45.89543 120.64543 45 121.75 45 Z" fill="#333"/>
        <path d="M 121.75 45 L 121.75 45 C 122.85457 45 123.75 45.89543 123.75 47 L 123.75 217 C 123.75 218.10457 122.85457 219 121.75 219 L 121.75 219 C 120.64543 219 119.75 218.10457 119.75 217 L 119.75 47 C 119.75 45.89543 120.64543 45 121.75 45 Z" stroke="gray" stroke-linecap="round" stroke-linejoin="round" stroke-width="1"/>
      </g>
      <g id="Graphic_25">
        <path d="M 152.75 45 L 152.75 45 C 153.85457 45 154.75 45.89543 154.75 47 L 154.75 217 C 154.75 218.10457 153.85457 219 152.75 219 L 152.75 219 C 151.64543 219 150.75 218.10457 150.75 217 L 150.75 47 C 150.75 45.89543 151.64543 45 152.75 45 Z" fill="#333"/>
        <path d="M 152.75 45 L 152.75 45 C 153.85457 45 154.75 45.89543 154.75 47 L 154.75 217 C 154.75 218.10457 153.85457 219 152.75 219 L 152.75 219 C 151.64543 219 150.75 218.10457 150.75 217 L 150.75 47 C 150.75 45.89543 151.64543 45 152.75 45 Z" stroke="gray" stroke-linecap="round" stroke-linejoin="round" stroke-width="1"/>
      </g>
      <g id="Graphic_26">
        <path d="M 161.25 45 L 161.25 45 C 162.35457 45 163.25 45.89543 163.25 47 L 163.25 217 C 163.25 218.10457 162.35457 219 161.25 219 L 161.25 219 C 160.14543 219 159.25 218.10457 159.25 217 L 159.25 47 C 159.25 45.89543 160.14543 45 161.25 45 Z" fill="#333"/>
        <path d="M 161.25 45 L 161.25 45 C 162.35457 45 163.25 45.89543 163.25 47 L 163.25 217 C 163.25 218.10457 162.35457 219 161.25 219 L 161.25 219 C 160.14543 219 159.25 218.10457 159.25 217 L 159.25 47 C 159.25 45.89543 160.14543 45 161.25 45 Z" stroke="gray" stroke-linecap="round" stroke-linejoin="round" stroke-width="1"/>
      </g>
      <g id="Graphic_27">
        <path d="M 183.75 45 L 183.75 45 C 185.95914 45 187.75 46.79086 187.75 49 L 187.75 215 C 187.75 217.20914 185.95914 219 183.75 219 L 183.75 219 C 181.54086 219 179.75 217.20914 179.75 215 L 179.75 49 C 179.75 46.79086 181.54086 45 183.75 45 Z" fill="#333"/>
        <path d="M 183.75 45 L 183.75 45 C 185.95914 45 187.75 46.79086 187.75 49 L 187.75 215 C 187.75 217.20914 185.95914 219 183.75 219 L 183.75 219 C 181.54086 219 179.75 217.20914 179.75 215 L 179.75 49 C 179.75 46.79086 181.54086 45 183.75 45 Z" stroke="gray" stroke-linecap="round" stroke-linejoin="round" stroke-width="1"/>
      </g>
      <g id="Graphic_28">
        <path d="M 196.25 45 L 196.25 45 C 198.45914 45 200.25 46.79086 200.25 49 L 200.25 215 C 200.25 217.20914 198.45914 219 196.25 219 L 196.25 219 C 194.04086 219 192.25 217.20914 192.25 215 L 192.25 49 C 192.25 46.79086 194.04086 45 196.25 45 Z" fill="#333"/>
        <path d="M 196.25 45 L 196.25 45 C 198.45914 45 200.25 46.79086 200.25 49 L 200.25 215 C 200.25 217.20914 198.45914 219 196.25 219 L 196.25 219 C 194.04086 219 192.25 217.20914 192.25 215 L 192.25 49 C 192.25 46.79086 194.04086 45 196.25 45 Z" stroke="gray" stroke-linecap="round" stroke-linejoin="round" stroke-width="1"/>
      </g>
      <g id="Graphic_29">
        <path d="M 214.75 45 L 214.75 45 C 215.85457 45 216.75 45.89543 216.75 47 L 216.75 217 C 216.75 218.10457 215.85457 219 214.75 219 L 214.75 219 C 213.64543 219 212.75 218.10457 212.75 217 L 212.75 47 C 212.75 45.89543 213.64543 45 214.75 45 Z" fill="#333"/>
        <path d="M 214.75 45 L 214.75 45 C 215.85457 45 216.75 45.89543 216.75 47 L 216.75 217 C 216.75 218.10457 215.85457 219 214.75 219 L 214.75 219 C 213.64543 219 212.75 218.10457 212.75 217 L 212.75 47 C 212.75 45.89543 213.64543 45 214.75 45 Z" stroke="gray" stroke-linecap="round" stroke-linejoin="round" stroke-width="1"/>
      </g>
      <g id="Graphic_30">
        <path d="M 223.25 45 L 223.25 45 C 224.35457 45 225.25 45.89543 225.25 47 L 225.25 217 C 225.25 218.10457 224.35457 219 223.25 219 L 223.25 219 C 222.14543 219 221.25 218.10457 221.25 217 L 221.25 47 C 221.25 45.89543 222.14543 45 223.25 45 Z" fill="#333"/>
        <path d="M 223.25 45 L 223.25 45 C 224.35457 45 225.25 45.89543 225.25 47 L 225.25 217 C 225.25 218.10457 224.35457 219 223.25 219 L 223.25 219 C 222.14543 219 221.25 218.10457 221.25 217 L 221.25 47 C 221.25 45.89543 222.14543 45 223.25 45 Z" stroke="gray" stroke-linecap="round" stroke-linejoin="round" stroke-width="1"/>
      </g>
      <g id="Graphic_31">
        <path d="M 239.75 45 L 239.75 45 C 241.95914 45 243.75 46.79086 243.75 49 L 243.75 215 C 243.75 217.20914 241.95914 219 239.75 219 L 239.75 219 C 237.54086 219 235.75 217.20914 235.75 215 L 235.75 49 C 235.75 46.79086 237.54086 45 239.75 45 Z" fill="#333"/>
        <path d="M 239.75 45 L 239.75 45 C 241.95914 45 243.75 46.79086 243.75 49 L 243.75 215 C 243.75 217.20914 241.95914 219 239.75 219 L 239.75 219 C 237.54086 219 235.75 217.20914 235.75 215 L 235.75 49 C 235.75 46.79086 237.54086 45 239.75 45 Z" stroke="gray" stroke-linecap="round" stroke-linejoin="round" stroke-width="1"/>
      </g>
      <g id="Graphic_32">
        <path d="M 252.25 45 L 252.25 45 C 253.35457 45 254.25 45.89543 254.25 47 L 254.25 217 C 254.25 218.10457 253.35457 219 252.25 219 L 252.25 219 C 251.14543 219 250.25 218.10457 250.25 217 L 250.25 47 C 250.25 45.89543 251.14543 45 252.25 45 Z" fill="#333"/>
        <path d="M 252.25 45 L 252.25 45 C 253.35457 45 254.25 45.89543 254.25 47 L 254.25 217 C 254.25 218.10457 253.35457 219 252.25 219 L 252.25 219 C 251.14543 219 250.25 218.10457 250.25 217 L 250.25 47 C 250.25 45.89543 251.14543 45 252.25 45 Z" stroke="gray" stroke-linecap="round" stroke-linejoin="round" stroke-width="1"/>
      </g>
      <g id="Graphic_33">
        <path d="M 268.75 45 L 268.75 45 C 270.95914 45 272.75 46.79086 272.75 49 L 272.75 215 C 272.75 217.20914 270.95914 219 268.75 219 L 268.75 219 C 266.54086 219 264.75 217.20914 264.75 215 L 264.75 49 C 264.75 46.79086 266.54086 45 268.75 45 Z" fill="#333"/>
        <path d="M 268.75 45 L 268.75 45 C 270.95914 45 272.75 46.79086 272.75 49 L 272.75 215 C 272.75 217.20914 270.95914 219 268.75 219 L 268.75 219 C 266.54086 219 264.75 217.20914 264.75 215 L 264.75 49 C 264.75 46.79086 266.54086 45 268.75 45 Z" stroke="gray" stroke-linecap="round" stroke-linejoin="round" stroke-width="1"/>
      </g>
      <g id="Graphic_34">
        <path d="M 281.25 45 L 281.25 45 C 282.35457 45 283.25 45.89543 283.25 47 L 283.25 217 C 283.25 218.10457 282.35457 219 281.25 219 L 281.25 219 C 280.14543 219 279.25 218.10457 279.25 217 L 279.25 47 C 279.25 45.89543 280.14543 45 281.25 45 Z" fill="#333"/>
        <path d="M 281.25 45 L 281.25 45 C 282.35457 45 283.25 45.89543 283.25 47 L 283.25 217 C 283.25 218.10457 282.35457 219 281.25 219 L 281.25 219 C 280.14543 219 279.25 218.10457 279.25 217 L 279.25 47 C 279.25 45.89543 280.14543 45 281.25 45 Z" stroke="gray" stroke-linecap="round" stroke-linejoin="round" stroke-width="1"/>
      </g>
      <g id="Graphic_37">
        <path d="M 137.25 45 L 137.25 45 C 138.35457 45 139.25 45.89543 139.25 47 L 139.25 217 C 139.25 218.10457 138.35457 219 137.25 219 L 137.25 219 C 136.14543 219 135.25 218.10457 135.25 217 L 135.25 47 C 135.25 45.89543 136.14543 45 137.25 45 Z" fill="#333"/>
        <path d="M 137.25 45 L 137.25 45 C 138.35457 45 139.25 45.89543 139.25 47 L 139.25 217 C 139.25 218.10457 138.35457 219 137.25 219 L 137.25 219 C 136.14543 219 135.25 218.10457 135.25 217 L 135.25 47 C 135.25 45.89543 136.14543 45 137.25 45 Z" stroke="gray" stroke-linecap="round" stroke-linejoin="round" stroke-width="1"/>
      </g>
      <g id="Graphic_39">
        <path d="M 397.25 109.5 L 397.25 109.5 C 397.25 111.70914 395.45914 113.5 393.25 113.5 L 312.25 113.5 C 310.04086 113.5 308.25 111.70914 308.25 109.5 L 308.25 109.5 C 308.25 107.29086 310.04086 105.5 312.25 105.5 L 393.25 105.5 C 395.45914 105.5 397.25 107.29086 397.25 109.5 Z" fill="#333"/>
        <path d="M 397.25 109.5 L 397.25 109.5 C 397.25 111.70914 395.45914 113.5 393.25 113.5 L 312.25 113.5 C 310.04086 113.5 308.25 111.70914 308.25 109.5 L 308.25 109.5 C 308.25 107.29086 310.04086 105.5 312.25 105.5 L 393.25 105.5 C 395.45914 105.5 397.25 107.29086 397.25 109.5 Z" stroke="gray" stroke-linecap="round" stroke-linejoin="round" stroke-width="1"/>
      </g>
      <g id="Graphic_40">
        <path d="M 381.25 156.5 L 381.25 156.5 C 381.25 158.70914 379.45914 160.5 377.25 160.5 L 312.25 160.5 C 310.04086 160.5 308.25 158.70914 308.25 156.5 L 308.25 156.5 C 308.25 154.29086 310.04086 152.5 312.25 152.5 L 377.25 152.5 C 379.45914 152.5 381.25 154.29086 381.25 156.5 Z" fill="#333"/>
        <path d="M 381.25 156.5 L 381.25 156.5 C 381.25 158.70914 379.45914 160.5 377.25 160.5 L 312.25 160.5 C 310.04086 160.5 308.25 158.70914 308.25 156.5 L 308.25 156.5 C 308.25 154.29086 310.04086 152.5 312.25 152.5 L 377.25 152.5 C 379.45914 152.5 381.25 154.29086 381.25 156.5 Z" stroke="gray" stroke-linecap="round" stroke-linejoin="round" stroke-width="1"/>
      </g>
      <g id="Graphic_41">
        <path d="M 400.75 203.5 L 400.75 203.5 C 400.75 205.70914 398.95914 207.5 396.75 207.5 L 312.25 207.5 C 310.04086 207.5 308.25 205.70914 308.25 203.5 L 308.25 203.5 C 308.25 201.29086 310.04086 199.5 312.25 199.5 L 396.75 199.5 C 398.95914 199.5 400.75 201.29086 400.75 203.5 Z" fill="#333"/>
        <path d="M 400.75 203.5 L 400.75 203.5 C 400.75 205.70914 398.95914 207.5 396.75 207.5 L 312.25 207.5 C 310.04086 207.5 308.25 205.70914 308.25 203.5 L 308.25 203.5 C 308.25 201.29086 310.04086 199.5 312.25 199.5 L 396.75 199.5 C 398.95914 199.5 400.75 201.29086 400.75 203.5 Z" stroke="gray" stroke-linecap="round" stroke-linejoin="round" stroke-width="1"/>
      </g>
      <g id="Graphic_42">
        <path d="M 340.40625 260.5 L 340.40625 260.5 C 340.40625 262.70914 338.6154 264.5 336.40625 264.5 L 47.5 264.5 C 45.29086 264.5 43.5 262.70914 43.5 260.5 L 43.5 260.5 C 43.5 258.29086 45.29086 256.5 47.5 256.5 L 336.40625 256.5 C 338.6154 256.5 340.40625 258.29086 340.40625 260.5 Z" fill="#333"/>
        <path d="M 340.40625 260.5 L 340.40625 260.5 C 340.40625 262.70914 338.6154 264.5 336.40625 264.5 L 47.5 264.5 C 45.29086 264.5 43.5 262.70914 43.5 260.5 L 43.5 260.5 C 43.5 258.29086 45.29086 256.5 47.5 256.5 L 336.40625 256.5 C 338.6154 256.5 340.40625 258.29086 340.40625 260.5 Z" stroke="gray" stroke-linecap="round" stroke-linejoin="round" stroke-width="1"/>
      </g>
      <g id="Graphic_43">
        <path d="M 315.25 317.5 L 315.25 317.5 C 315.25 319.70914 313.45914 321.5 311.25 321.5 L 47.5 321.5 C 45.29086 321.5 43.5 319.70914 43.5 317.5 L 43.5 317.5 C 43.5 315.29086 45.29086 313.5 47.5 313.5 L 311.25 313.5 C 313.45914 313.5 315.25 315.29086 315.25 317.5 Z" fill="#333"/>
        <path d="M 315.25 317.5 L 315.25 317.5 C 315.25 319.70914 313.45914 321.5 311.25 321.5 L 47.5 321.5 C 45.29086 321.5 43.5 319.70914 43.5 317.5 L 43.5 317.5 C 43.5 315.29086 45.29086 313.5 47.5 313.5 L 311.25 313.5 C 313.45914 313.5 315.25 315.29086 315.25 317.5 Z" stroke="gray" stroke-linecap="round" stroke-linejoin="round" stroke-width="1"/>
      </g>
      <g id="Graphic_44">
        <path d="M 315.25 374.5 L 315.25 374.5 C 315.25 376.70914 313.45914 378.5 311.25 378.5 L 47.5 378.5 C 45.29086 378.5 43.5 376.70914 43.5 374.5 L 43.5 374.5 C 43.5 372.29086 45.29086 370.5 47.5 370.5 L 311.25 370.5 C 313.45914 370.5 315.25 372.29086 315.25 374.5 Z" fill="#333"/>
        <path d="M 315.25 374.5 L 315.25 374.5 C 315.25 376.70914 313.45914 378.5 311.25 378.5 L 47.5 378.5 C 45.29086 378.5 43.5 376.70914 43.5 374.5 L 43.5 374.5 C 43.5 372.29086 45.29086 370.5 47.5 370.5 L 311.25 370.5 C 313.45914 370.5 315.25 372.29086 315.25 374.5 Z" stroke="gray" stroke-linecap="round" stroke-linejoin="round" stroke-width="1"/>
      </g>
      <g id="Graphic_45">
        <path d="M 358.75 431.5 L 358.75 431.5 C 358.75 433.70914 356.95914 435.5 354.75 435.5 L 47.5 435.5 C 45.29086 435.5 43.5 433.70914 43.5 431.5 L 43.5 431.5 C 43.5 429.29086 45.29086 427.5 47.5 427.5 L 354.75 427.5 C 356.95914 427.5 358.75 429.29086 358.75 431.5 Z" fill="#333"/>
        <path d="M 358.75 431.5 L 358.75 431.5 C 358.75 433.70914 356.95914 435.5 354.75 435.5 L 47.5 435.5 C 45.29086 435.5 43.5 433.70914 43.5 431.5 L 43.5 431.5 C 43.5 429.29086 45.29086 427.5 47.5 427.5 L 354.75 427.5 C 356.95914 427.5 358.75 429.29086 358.75 431.5 Z" stroke="gray" stroke-linecap="round" stroke-linejoin="round" stroke-width="1"/>
      </g>
      <g id="Graphic_46">
        <path d="M 397.25 52.5 L 397.25 52.5 C 397.25 54.70914 395.45914 56.5 393.25 56.5 L 312.25 56.5 C 310.04086 56.5 308.25 54.70914 308.25 52.5 L 308.25 52.5 C 308.25 50.29086 310.04086 48.5 312.25 48.5 L 393.25 48.5 C 395.45914 48.5 397.25 50.29086 397.25 52.5 Z" fill="#333"/>
        <path d="M 397.25 52.5 L 397.25 52.5 C 397.25 54.70914 395.45914 56.5 393.25 56.5 L 312.25 56.5 C 310.04086 56.5 308.25 54.70914 308.25 52.5 L 308.25 52.5 C 308.25 50.29086 310.04086 48.5 312.25 48.5 L 393.25 48.5 C 395.45914 48.5 397.25 50.29086 397.25 52.5 Z" stroke="gray" stroke-linecap="round" stroke-linejoin="round" stroke-width="1"/>
      </g>
    </g>
    <g id="Canvas_1_Stift">
      <title>Stift</title>
      <g id="Group_60">
        <g id="Graphic_47">
          <path d="M 280.74937 410.762 L 418.28164 273.2297 L 441.2626 296.21068 L 303.73034 433.74295 Z" fill="#f0bf5e"/>
        </g>
        <g id="Graphic_48">
          <path d="M 303.73034 433.74295 L 441.2626 296.21068 L 464.2436 319.19165 L 326.7113 456.7239 Z" fill="#d8af62"/>
        </g>
        <g id="Graphic_50">
          <path d="M 425.3527 266.15864 L 458.9403 232.57107 C 462.8455 228.66582 469.1772 228.66582 473.0824 232.57107 L 481.92125 241.4099 C 485.8265 245.31515 485.8265 251.6468 481.92125 255.55204 C 481.92125 255.55204 481.92125 255.55204 481.92125 255.55204 L 448.3337 289.1396 C 444.42844 293.04485 438.0968 293.04485 434.19154 289.1396 C 434.19154 289.1396 434.19154 289.1396 434.19154 289.1396 L 425.3527 280.30078 C 421.44747 276.39553 421.44747 270.06388 425.3527 266.15864 Z" fill="#f15d4f"/>
        </g>
        <g id="Graphic_51">
          <path d="M 448.3337 289.1396 L 481.92125 255.55204 C 485.8265 251.6468 492.15814 251.6468 496.0634 255.55204 L 504.9022 264.39087 C 508.80746 268.2961 508.80746 274.62777 504.9022 278.533 L 471.31465 312.12058 C 467.4094 316.02582 461.07776 316.02582 457.1725 312.12058 L 448.3337 303.28175 C 444.42844 299.3765 444.42844 293.04485 448.3337 289.1396 Z" fill="#d76154"/>
        </g>
        <g id="Graphic_52">
          <path d="M 418.28164 273.2297 L 443.62823 247.88312 L 466.6092 270.8641 L 441.2626 296.21068 Z" fill="#f05d4e"/>
        </g>
        <g id="Graphic_53">
          <path d="M 441.2626 296.21068 L 466.6092 270.8641 L 489.5902 293.84506 L 464.2436 319.19165 Z" fill="#d76154"/>
        </g>
        <g id="Graphic_54">
          <path d="M 466.6092 270.8641 L 488.9923 248.48097 L 504.1951 263.68377 L 481.812 286.0669 Z" fill="#d76154"/>
        </g>
        <g id="Graphic_55">
          <path d="M 451.4064 255.6613 L 473.7895 233.27817 L 488.9923 248.48097 L 466.6092 270.8641 Z" fill="#f05d4e"/>
        </g>
        <g id="Graphic_56">
          <path d="M 280.74937 410.762 L 266.9608 470.5125 L 303.73034 433.74295 Z" fill="#dfcfc3"/>
        </g>
        <g id="Graphic_57">
          <path d="M 326.7113 456.7239 L 266.9608 470.5125 L 303.73034 433.74295 Z" fill="#cabbb1"/>
        </g>
        <g id="Graphic_58">
          <path d="M 263.74028 468.64186 L 270.38708 461.99505 C 271.94918 460.43296 274.48184 460.43296 276.04394 461.99505 L 276.04394 461.99505 C 277.60603 463.55715 277.60603 466.0898 276.04394 467.6519 L 269.39713 474.2987 C 267.83504 475.8608 265.30238 475.8608 263.74028 474.2987 L 263.74028 474.2987 C 262.17818 472.7366 262.17818 470.20395 263.74028 468.64186 Z" fill="#ce2c00"/>
        </g>
        <g id="Graphic_59">
          <path d="M 263.03317 469.34896 L 258.79053 479.24846 L 268.69003 475.0058 Z" fill="#ce2c00"/>
        </g>
      </g>
    </g>
  </g>
</svg>
