<?xml version="1.0" encoding="UTF-8" standalone="no"?>
<!DOCTYPE svg PUBLIC "-//W3C//DTD SVG 1.1//EN" "http://www.w3.org/Graphics/SVG/1.1/DTD/svg11.dtd">
<svg xmlns="http://www.w3.org/2000/svg" xmlns:xl="http://www.w3.org/1999/xlink" version="1.1" xmlns:dc="http://purl.org/dc/elements/1.1/" viewBox="-.5 -.5 24.5 25" width="24.5" height="25">
  <defs/>
  <g id="Canvas_1" stroke="none" stroke-dasharray="none" fill="none" stroke-opacity="1" fill-opacity="1">
    <title>Canvas 1</title>
    <g id="Canvas_1_Layer_1">
      <title>Layer 1</title>
      <g id="Group_2">
        <title>Canvas_1</title>
        <g id="Group_3">
          <title>Canvas_1_Layer_1</title>
          <g id="Group_4">
            <title>Group_2</title>
            <g id="Group_43">
              <title>Group_29</title>
              <g id="Group_169">
                <title>Group_105</title>
                <g id="Group_170">
                  <title>Graphic_106</title>
                  <g id="Graphic_171">
                    <path d="M .8034167 11368684e-20 L 20.298086 11368684e-20 C 20.7418 11368684e-20 21.101502 .3578214 21.101502 .7992164 L 21.101502 23.200782 C 21.101502 23.642178 20.7418 24 20.298086 24 L .8034167 24 C .3597019 24 58619776e-21 23.642178 58619776e-21 23.200782 L 6039613e-20 .7992164 C 6039613e-20 .3578214 .3597019 11368684e-20 .8034167 11368684e-20 Z" stroke="#333" stroke-linecap="round" stroke-linejoin="round" stroke-width="1"/>
                  </g>
                </g>
              </g>
              <g id="Group_164">
                <title>Group_102</title>
                <g id="Group_167">
                  <title>Graphic_104</title>
                  <g id="Graphic_168">
                    <path d="M 2.422065 2.115573 C 2.5264684 2.115573 2.611104 2.199766 2.611104 2.303624 L 2.611104 10.107737 C 2.611104 10.211595 2.5264684 10.295789 2.422065 10.295789 C 2.3176614 10.295789 2.2330257 10.211595 2.2330257 10.107737 L 2.2330257 2.303624 C 2.2330257 2.199766 2.3176614 2.115573 2.422065 2.115573 Z" fill="#333"/>
                  </g>
                </g>
                <g id="Group_165">
                  <title>Graphic_103</title>
                  <g id="Graphic_166">
                    <path d="M 2.422065 2.115573 C 2.5264684 2.115573 2.611104 2.199766 2.611104 2.303624 L 2.611104 10.107737 C 2.611104 10.211595 2.5264684 10.295789 2.422065 10.295789 C 2.3176614 10.295789 2.2330257 10.211595 2.2330257 10.107737 L 2.2330257 2.303624 C 2.2330257 2.199766 2.3176614 2.115573 2.422065 2.115573 Z" stroke="gray" stroke-linecap="round" stroke-linejoin="round" stroke-width="0"/>
                  </g>
                </g>
              </g>
              <g id="Group_159">
                <title>Group_99</title>
                <g id="Group_162">
                  <title>Graphic_101</title>
                  <g id="Graphic_163">
                    <path d="M 3.0128125 2.115573 C 3.065014 2.115573 3.107332 2.1576696 3.107332 2.2095983 L 3.107332 10.201763 C 3.107332 10.253692 3.065014 10.295789 3.0128125 10.295789 C 2.960611 10.295789 2.918293 10.253692 2.918293 10.201763 L 2.918293 2.2095983 C 2.918293 2.1576696 2.960611 2.115573 3.0128125 2.115573 Z" fill="#333"/>
                  </g>
                </g>
                <g id="Group_160">
                  <title>Graphic_100</title>
                  <g id="Graphic_161">
                    <path d="M 3.0128125 2.115573 C 3.065014 2.115573 3.107332 2.1576696 3.107332 2.2095983 L 3.107332 10.201763 C 3.107332 10.253692 3.065014 10.295789 3.0128125 10.295789 C 2.960611 10.295789 2.918293 10.253692 2.918293 10.201763 L 2.918293 2.2095983 C 2.918293 2.1576696 2.960611 2.115573 3.0128125 2.115573 Z" stroke="gray" stroke-linecap="round" stroke-linejoin="round" stroke-width="0"/>
                  </g>
                </g>
              </g>
              <g id="Group_154">
                <title>Group_96</title>
                <g id="Group_157">
                  <title>Graphic_98</title>
                  <g id="Graphic_158">
                    <path d="M 3.4617806 2.115573 C 3.5139825 2.115573 3.5563004 2.1576696 3.5563004 2.2095983 L 3.5563004 10.201763 C 3.5563004 10.253692 3.5139825 10.295789 3.4617806 10.295789 C 3.4095787 10.295789 3.367261 10.253692 3.367261 10.201763 L 3.367261 2.2095983 C 3.367261 2.1576696 3.4095787 2.115573 3.4617806 2.115573 Z" fill="#333"/>
                  </g>
                </g>
                <g id="Group_155">
                  <title>Graphic_97</title>
                  <g id="Graphic_156">
                    <path d="M 3.4617806 2.115573 C 3.5139825 2.115573 3.5563004 2.1576696 3.5563004 2.2095983 L 3.5563004 10.201763 C 3.5563004 10.253692 3.5139825 10.295789 3.4617806 10.295789 C 3.4095787 10.295789 3.367261 10.253692 3.367261 10.201763 L 3.367261 2.2095983 C 3.367261 2.1576696 3.4095787 2.115573 3.4617806 2.115573 Z" stroke="gray" stroke-linecap="round" stroke-linejoin="round" stroke-width="0"/>
                  </g>
                </g>
              </g>
              <g id="Group_149">
                <title>Group_93</title>
                <g id="Group_152">
                  <title>Graphic_95</title>
                  <g id="Graphic_153">
                    <path d="M 4.2415675 2.115573 C 4.293769 2.115573 4.336087 2.1576696 4.336087 2.2095983 L 4.336087 10.201763 C 4.336087 10.253692 4.293769 10.295789 4.2415675 10.295789 C 4.1893656 10.295789 4.1470477 10.253692 4.1470477 10.201763 L 4.1470477 2.2095983 C 4.1470477 2.1576696 4.1893656 2.115573 4.2415675 2.115573 Z" fill="#333"/>
                  </g>
                </g>
                <g id="Group_150">
                  <title>Graphic_94</title>
                  <g id="Graphic_151">
                    <path d="M 4.2415675 2.115573 C 4.293769 2.115573 4.336087 2.1576696 4.336087 2.2095983 L 4.336087 10.201763 C 4.336087 10.253692 4.293769 10.295789 4.2415675 10.295789 C 4.1893656 10.295789 4.1470477 10.253692 4.1470477 10.201763 L 4.1470477 2.2095983 C 4.1470477 2.1576696 4.1893656 2.115573 4.2415675 2.115573 Z" stroke="gray" stroke-linecap="round" stroke-linejoin="round" stroke-width="0"/>
                  </g>
                </g>
              </g>
              <g id="Group_144">
                <title>Group_90</title>
                <g id="Group_147">
                  <title>Graphic_92</title>
                  <g id="Graphic_148">
                    <path d="M 5.1631333 2.115573 C 5.267537 2.115573 5.352173 2.199766 5.352173 2.303624 L 5.352173 10.107737 C 5.352173 10.211595 5.267537 10.295789 5.1631333 10.295789 C 5.05873 10.295789 4.974094 10.211595 4.974094 10.107737 L 4.974094 2.303624 C 4.974094 2.199766 5.05873 2.115573 5.1631333 2.115573 Z" fill="#333"/>
                  </g>
                </g>
                <g id="Group_145">
                  <title>Graphic_91</title>
                  <g id="Graphic_146">
                    <path d="M 5.1631333 2.115573 C 5.267537 2.115573 5.352173 2.199766 5.352173 2.303624 L 5.352173 10.107737 C 5.352173 10.211595 5.267537 10.295789 5.1631333 10.295789 C 5.05873 10.295789 4.974094 10.211595 4.974094 10.107737 L 4.974094 2.303624 C 4.974094 2.199766 5.05873 2.115573 5.1631333 2.115573 Z" stroke="gray" stroke-linecap="round" stroke-linejoin="round" stroke-width="0"/>
                  </g>
                </g>
              </g>
              <g id="Group_139">
                <title>Group_87</title>
                <g id="Group_142">
                  <title>Graphic_89</title>
                  <g id="Graphic_143">
                    <path d="M 5.753881 2.115573 C 5.806083 2.115573 5.8484004 2.1576696 5.8484004 2.2095983 L 5.8484004 10.201763 C 5.8484004 10.253692 5.806083 10.295789 5.753881 10.295789 C 5.701679 10.295789 5.6593613 10.253692 5.6593613 10.201763 L 5.6593613 2.2095983 C 5.6593613 2.1576696 5.701679 2.115573 5.753881 2.115573 Z" fill="#333"/>
                  </g>
                </g>
                <g id="Group_140">
                  <title>Graphic_88</title>
                  <g id="Graphic_141">
                    <path d="M 5.753881 2.115573 C 5.806083 2.115573 5.8484004 2.1576696 5.8484004 2.2095983 L 5.8484004 10.201763 C 5.8484004 10.253692 5.806083 10.295789 5.753881 10.295789 C 5.701679 10.295789 5.6593613 10.253692 5.6593613 10.201763 L 5.6593613 2.2095983 C 5.6593613 2.1576696 5.701679 2.115573 5.753881 2.115573 Z" stroke="gray" stroke-linecap="round" stroke-linejoin="round" stroke-width="0"/>
                  </g>
                </g>
              </g>
              <g id="Group_134">
                <title>Group_84</title>
                <g id="Group_137">
                  <title>Graphic_86</title>
                  <g id="Graphic_138">
                    <path d="M 7.218935 2.115573 C 7.2711365 2.115573 7.313454 2.1576696 7.313454 2.2095983 L 7.313454 10.201763 C 7.313454 10.253692 7.2711365 10.295789 7.218935 10.295789 C 7.166733 10.295789 7.124415 10.253692 7.124415 10.201763 L 7.124415 2.2095983 C 7.124415 2.1576696 7.166733 2.115573 7.218935 2.115573 Z" fill="#333"/>
                  </g>
                </g>
                <g id="Group_135">
                  <title>Graphic_85</title>
                  <g id="Graphic_136">
                    <path d="M 7.218935 2.115573 C 7.2711365 2.115573 7.313454 2.1576696 7.313454 2.2095983 L 7.313454 10.201763 C 7.313454 10.253692 7.2711365 10.295789 7.218935 10.295789 C 7.166733 10.295789 7.124415 10.253692 7.124415 10.201763 L 7.124415 2.2095983 C 7.124415 2.1576696 7.166733 2.115573 7.218935 2.115573 Z" stroke="gray" stroke-linecap="round" stroke-linejoin="round" stroke-width="0"/>
                  </g>
                </g>
              </g>
              <g id="Group_129">
                <title>Group_81</title>
                <g id="Group_132">
                  <title>Graphic_83</title>
                  <g id="Graphic_133">
                    <path d="M 7.620643 2.115573 C 7.672845 2.115573 7.715163 2.1576696 7.715163 2.2095983 L 7.715163 10.201763 C 7.715163 10.253692 7.672845 10.295789 7.620643 10.295789 C 7.5684415 10.295789 7.526124 10.253692 7.526124 10.201763 L 7.526124 2.2095983 C 7.526124 2.1576696 7.5684415 2.115573 7.620643 2.115573 Z" fill="#333"/>
                  </g>
                </g>
                <g id="Group_130">
                  <title>Graphic_82</title>
                  <g id="Graphic_131">
                    <path d="M 7.620643 2.115573 C 7.672845 2.115573 7.715163 2.1576696 7.715163 2.2095983 L 7.715163 10.201763 C 7.715163 10.253692 7.672845 10.295789 7.620643 10.295789 C 7.5684415 10.295789 7.526124 10.253692 7.526124 10.201763 L 7.526124 2.2095983 C 7.526124 2.1576696 7.5684415 2.115573 7.620643 2.115573 Z" stroke="gray" stroke-linecap="round" stroke-linejoin="round" stroke-width="0"/>
                  </g>
                </g>
              </g>
              <g id="Group_124">
                <title>Group_78</title>
                <g id="Group_127">
                  <title>Graphic_80</title>
                  <g id="Graphic_128">
                    <path d="M 8.683989 2.115573 C 8.788393 2.115573 8.873028 2.199766 8.873028 2.303624 L 8.873028 10.107737 C 8.873028 10.211595 8.788393 10.295789 8.683989 10.295789 C 8.579585 10.295789 8.49495 10.211595 8.49495 10.107737 L 8.49495 2.303624 C 8.49495 2.199766 8.579585 2.115573 8.683989 2.115573 Z" fill="#333"/>
                  </g>
                </g>
                <g id="Group_125">
                  <title>Graphic_79</title>
                  <g id="Graphic_126">
                    <path d="M 8.683989 2.115573 C 8.788393 2.115573 8.873028 2.199766 8.873028 2.303624 L 8.873028 10.107737 C 8.873028 10.211595 8.788393 10.295789 8.683989 10.295789 C 8.579585 10.295789 8.49495 10.211595 8.49495 10.107737 L 8.49495 2.303624 C 8.49495 2.199766 8.579585 2.115573 8.683989 2.115573 Z" stroke="gray" stroke-linecap="round" stroke-linejoin="round" stroke-width="0"/>
                  </g>
                </g>
              </g>
              <g id="Group_119">
                <title>Group_75</title>
                <g id="Group_122">
                  <title>Graphic_77</title>
                  <g id="Graphic_123">
                    <path d="M 9.274736 2.115573 C 9.37914 2.115573 9.463775 2.199766 9.463775 2.303624 L 9.463775 10.107737 C 9.463775 10.211595 9.37914 10.295789 9.274736 10.295789 C 9.170333 10.295789 9.085697 10.211595 9.085697 10.107737 L 9.085697 2.303624 C 9.085697 2.199766 9.170333 2.115573 9.274736 2.115573 Z" fill="#333"/>
                  </g>
                </g>
                <g id="Group_120">
                  <title>Graphic_76</title>
                  <g id="Graphic_121">
                    <path d="M 9.274736 2.115573 C 9.37914 2.115573 9.463775 2.199766 9.463775 2.303624 L 9.463775 10.107737 C 9.463775 10.211595 9.37914 10.295789 9.274736 10.295789 C 9.170333 10.295789 9.085697 10.211595 9.085697 10.107737 L 9.085697 2.303624 C 9.085697 2.199766 9.170333 2.115573 9.274736 2.115573 Z" stroke="gray" stroke-linecap="round" stroke-linejoin="round" stroke-width="0"/>
                  </g>
                </g>
              </g>
              <g id="Group_114">
                <title>Group_72</title>
                <g id="Group_117">
                  <title>Graphic_74</title>
                  <g id="Graphic_118">
                    <path d="M 10.149043 2.115573 C 10.201244 2.115573 10.243562 2.1576696 10.243562 2.2095983 L 10.243562 10.201763 C 10.243562 10.253692 10.201244 10.295789 10.149043 10.295789 C 10.096841 10.295789 10.054523 10.253692 10.054523 10.201763 L 10.054523 2.2095983 C 10.054523 2.1576696 10.096841 2.115573 10.149043 2.115573 Z" fill="#333"/>
                  </g>
                </g>
                <g id="Group_115">
                  <title>Graphic_73</title>
                  <g id="Graphic_116">
                    <path d="M 10.149043 2.115573 C 10.201244 2.115573 10.243562 2.1576696 10.243562 2.2095983 L 10.243562 10.201763 C 10.243562 10.253692 10.201244 10.295789 10.149043 10.295789 C 10.096841 10.295789 10.054523 10.253692 10.054523 10.201763 L 10.054523 2.2095983 C 10.054523 2.1576696 10.096841 2.115573 10.149043 2.115573 Z" stroke="gray" stroke-linecap="round" stroke-linejoin="round" stroke-width="0"/>
                  </g>
                </g>
              </g>
              <g id="Group_109">
                <title>Group_69</title>
                <g id="Group_112">
                  <title>Graphic_71</title>
                  <g id="Graphic_113">
                    <path d="M 10.550751 2.115573 C 10.602953 2.115573 10.64527 2.1576696 10.64527 2.2095983 L 10.64527 10.201763 C 10.64527 10.253692 10.602953 10.295789 10.550751 10.295789 C 10.49855 10.295789 10.456232 10.253692 10.456232 10.201763 L 10.456232 2.2095983 C 10.456232 2.1576696 10.49855 2.115573 10.550751 2.115573 Z" fill="#333"/>
                  </g>
                </g>
                <g id="Group_110">
                  <title>Graphic_70</title>
                  <g id="Graphic_111">
                    <path d="M 10.550751 2.115573 C 10.602953 2.115573 10.64527 2.1576696 10.64527 2.2095983 L 10.64527 10.201763 C 10.64527 10.253692 10.602953 10.295789 10.550751 10.295789 C 10.49855 10.295789 10.456232 10.253692 10.456232 10.201763 L 10.456232 2.2095983 C 10.456232 2.1576696 10.49855 2.115573 10.550751 2.115573 Z" stroke="gray" stroke-linecap="round" stroke-linejoin="round" stroke-width="0"/>
                  </g>
                </g>
              </g>
              <g id="Group_104">
                <title>Group_66</title>
                <g id="Group_107">
                  <title>Graphic_68</title>
                  <g id="Graphic_108">
                    <path d="M 11.330538 2.115573 C 11.434942 2.115573 11.519577 2.199766 11.519577 2.303624 L 11.519577 10.107737 C 11.519577 10.211595 11.434942 10.295789 11.330538 10.295789 C 11.226134 10.295789 11.141499 10.211595 11.141499 10.107737 L 11.141499 2.303624 C 11.141499 2.199766 11.226134 2.115573 11.330538 2.115573 Z" fill="#333"/>
                  </g>
                </g>
                <g id="Group_105">
                  <title>Graphic_67</title>
                  <g id="Graphic_106">
                    <path d="M 11.330538 2.115573 C 11.434942 2.115573 11.519577 2.199766 11.519577 2.303624 L 11.519577 10.107737 C 11.519577 10.211595 11.434942 10.295789 11.330538 10.295789 C 11.226134 10.295789 11.141499 10.211595 11.141499 10.107737 L 11.141499 2.303624 C 11.141499 2.199766 11.226134 2.115573 11.330538 2.115573 Z" stroke="gray" stroke-linecap="round" stroke-linejoin="round" stroke-width="0"/>
                  </g>
                </g>
              </g>
              <g id="Group_99">
                <title>Group_63</title>
                <g id="Group_102">
                  <title>Graphic_65</title>
                  <g id="Graphic_103">
                    <path d="M 11.921285 2.115573 C 11.973487 2.115573 12.015805 2.1576696 12.015805 2.2095983 L 12.015805 10.201763 C 12.015805 10.253692 11.973487 10.295789 11.921285 10.295789 C 11.869083 10.295789 11.826766 10.253692 11.826766 10.201763 L 11.826766 2.2095983 C 11.826766 2.1576696 11.869083 2.115573 11.921285 2.115573 Z" fill="#333"/>
                  </g>
                </g>
                <g id="Group_100">
                  <title>Graphic_64</title>
                  <g id="Graphic_101">
                    <path d="M 11.921285 2.115573 C 11.973487 2.115573 12.015805 2.1576696 12.015805 2.2095983 L 12.015805 10.201763 C 12.015805 10.253692 11.973487 10.295789 11.921285 10.295789 C 11.869083 10.295789 11.826766 10.253692 11.826766 10.201763 L 11.826766 2.2095983 C 11.826766 2.1576696 11.869083 2.115573 11.921285 2.115573 Z" stroke="gray" stroke-linecap="round" stroke-linejoin="round" stroke-width="0"/>
                  </g>
                </g>
              </g>
              <g id="Group_94">
                <title>Group_60</title>
                <g id="Group_97">
                  <title>Graphic_62</title>
                  <g id="Graphic_98">
                    <path d="M 12.701071 2.115573 C 12.805475 2.115573 12.890111 2.199766 12.890111 2.303624 L 12.890111 10.107737 C 12.890111 10.211595 12.805475 10.295789 12.701071 10.295789 C 12.596669 10.295789 12.512033 10.211595 12.512033 10.107737 L 12.512033 2.303624 C 12.512033 2.199766 12.596669 2.115573 12.701071 2.115573 Z" fill="#333"/>
                  </g>
                </g>
                <g id="Group_95">
                  <title>Graphic_61</title>
                  <g id="Graphic_96">
                    <path d="M 12.701071 2.115573 C 12.805475 2.115573 12.890111 2.199766 12.890111 2.303624 L 12.890111 10.107737 C 12.890111 10.211595 12.805475 10.295789 12.701071 10.295789 C 12.596669 10.295789 12.512033 10.211595 12.512033 10.107737 L 12.512033 2.303624 C 12.512033 2.199766 12.596669 2.115573 12.701071 2.115573 Z" stroke="gray" stroke-linecap="round" stroke-linejoin="round" stroke-width="0"/>
                  </g>
                </g>
              </g>
              <g id="Group_89">
                <title>Group_57</title>
                <g id="Group_92">
                  <title>Graphic_59</title>
                  <g id="Graphic_93">
                    <path d="M 13.29182 2.115573 C 13.344022 2.115573 13.38634 2.1576696 13.38634 2.2095983 L 13.38634 10.201763 C 13.38634 10.253692 13.344022 10.295789 13.29182 10.295789 C 13.239618 10.295789 13.1973 10.253692 13.1973 10.201763 L 13.1973 2.2095983 C 13.1973 2.1576696 13.239618 2.115573 13.29182 2.115573 Z" fill="#333"/>
                  </g>
                </g>
                <g id="Group_90">
                  <title>Graphic_58</title>
                  <g id="Graphic_91">
                    <path d="M 13.29182 2.115573 C 13.344022 2.115573 13.38634 2.1576696 13.38634 2.2095983 L 13.38634 10.201763 C 13.38634 10.253692 13.344022 10.295789 13.29182 10.295789 C 13.239618 10.295789 13.1973 10.253692 13.1973 10.201763 L 13.1973 2.2095983 C 13.1973 2.1576696 13.239618 2.115573 13.29182 2.115573 Z" stroke="gray" stroke-linecap="round" stroke-linejoin="round" stroke-width="0"/>
                  </g>
                </g>
              </g>
              <g id="Group_84">
                <title>Group_54</title>
                <g id="Group_87">
                  <title>Graphic_56</title>
                  <g id="Graphic_88">
                    <path d="M 6.486408 2.115573 C 6.53861 2.115573 6.580928 2.1576696 6.580928 2.2095983 L 6.580928 10.201763 C 6.580928 10.253692 6.53861 10.295789 6.486408 10.295789 C 6.4342065 10.295789 6.3918886 10.253692 6.3918886 10.201763 L 6.3918886 2.2095983 C 6.3918886 2.1576696 6.4342065 2.115573 6.486408 2.115573 Z" fill="#333"/>
                  </g>
                </g>
                <g id="Group_85">
                  <title>Graphic_55</title>
                  <g id="Graphic_86">
                    <path d="M 6.486408 2.115573 C 6.53861 2.115573 6.580928 2.1576696 6.580928 2.2095983 L 6.580928 10.201763 C 6.580928 10.253692 6.53861 10.295789 6.486408 10.295789 C 6.4342065 10.295789 6.3918886 10.253692 6.3918886 10.201763 L 6.3918886 2.2095983 C 6.3918886 2.1576696 6.4342065 2.115573 6.486408 2.115573 Z" stroke="gray" stroke-linecap="round" stroke-linejoin="round" stroke-width="0"/>
                  </g>
                </g>
              </g>
              <g id="Group_79">
                <title>Group_51</title>
                <g id="Group_82">
                  <title>Graphic_53</title>
                  <g id="Graphic_83">
                    <path d="M 18.773956 5.1478945 C 18.773956 5.251752 18.68932 5.3359454 18.584917 5.3359454 L 14.756874 5.3359454 C 14.65247 5.3359454 14.567834 5.251752 14.567834 5.1478945 C 14.567834 5.0440365 14.65247 4.9598435 14.756874 4.9598435 L 18.584917 4.9598435 C 18.68932 4.9598435 18.773956 5.0440365 18.773956 5.1478945 Z" fill="#333"/>
                  </g>
                </g>
                <g id="Group_80">
                  <title>Graphic_52</title>
                  <g id="Graphic_81">
                    <path d="M 18.773956 5.1478945 C 18.773956 5.251752 18.68932 5.3359454 18.584917 5.3359454 L 14.756874 5.3359454 C 14.65247 5.3359454 14.567834 5.251752 14.567834 5.1478945 C 14.567834 5.0440365 14.65247 4.9598435 14.756874 4.9598435 L 18.584917 4.9598435 C 18.68932 4.9598435 18.773956 5.0440365 18.773956 5.1478945 Z" stroke="gray" stroke-linecap="round" stroke-linejoin="round" stroke-width="0"/>
                  </g>
                </g>
              </g>
              <g id="Group_74">
                <title>Group_48</title>
                <g id="Group_77">
                  <title>Graphic_50</title>
                  <g id="Graphic_78">
                    <path d="M 18.0178 7.357493 C 18.0178 7.46135 17.933164 7.545544 17.82876 7.545544 L 14.756874 7.545544 C 14.65247 7.545544 14.567834 7.46135 14.567834 7.357493 C 14.567834 7.253635 14.65247 7.169442 14.756874 7.169442 L 17.82876 7.169442 C 17.933164 7.169442 18.0178 7.253635 18.0178 7.357493 Z" fill="#333"/>
                  </g>
                </g>
                <g id="Group_75">
                  <title>Graphic_49</title>
                  <g id="Graphic_76">
                    <path d="M 18.0178 7.357493 C 18.0178 7.46135 17.933164 7.545544 17.82876 7.545544 L 14.756874 7.545544 C 14.65247 7.545544 14.567834 7.46135 14.567834 7.357493 C 14.567834 7.253635 14.65247 7.169442 14.756874 7.169442 L 17.82876 7.169442 C 17.933164 7.169442 18.0178 7.253635 18.0178 7.357493 Z" stroke="gray" stroke-linecap="round" stroke-linejoin="round" stroke-width="0"/>
                  </g>
                </g>
              </g>
              <g id="Group_69">
                <title>Group_45</title>
                <g id="Group_72">
                  <title>Graphic_47</title>
                  <g id="Graphic_73">
                    <path d="M 18.939366 9.567091 C 18.939366 9.670949 18.85473 9.755142 18.750328 9.755142 L 14.756874 9.755142 C 14.65247 9.755142 14.567834 9.670949 14.567834 9.567091 C 14.567834 9.463233 14.65247 9.37904 14.756874 9.37904 L 18.750328 9.37904 C 18.85473 9.37904 18.939366 9.463233 18.939366 9.567091 Z" fill="#333"/>
                  </g>
                </g>
                <g id="Group_70">
                  <title>Graphic_46</title>
                  <g id="Graphic_71">
                    <path d="M 18.939366 9.567091 C 18.939366 9.670949 18.85473 9.755142 18.750328 9.755142 L 14.756874 9.755142 C 14.65247 9.755142 14.567834 9.670949 14.567834 9.567091 C 14.567834 9.463233 14.65247 9.37904 14.756874 9.37904 L 18.750328 9.37904 C 18.85473 9.37904 18.939366 9.463233 18.939366 9.567091 Z" stroke="gray" stroke-linecap="round" stroke-linejoin="round" stroke-width="0"/>
                  </g>
                </g>
              </g>
              <g id="Group_64">
                <title>Group_42</title>
                <g id="Group_67">
                  <title>Graphic_44</title>
                  <g id="Graphic_68">
                    <path d="M 16.087532 12.246817 C 16.087532 12.350674 16.002897 12.434868 15.898493 12.434868 L 2.2448407 12.434868 C 2.140437 12.434868 2.0558014 12.350674 2.0558014 12.246817 C 2.0558014 12.14296 2.140437 12.058766 2.2448407 12.058766 L 15.898493 12.058766 C 16.002897 12.058766 16.087532 12.14296 16.087532 12.246817 Z" fill="#333"/>
                  </g>
                </g>
                <g id="Group_65">
                  <title>Graphic_43</title>
                  <g id="Graphic_66">
                    <path d="M 16.087532 12.246817 C 16.087532 12.350674 16.002897 12.434868 15.898493 12.434868 L 2.2448407 12.434868 C 2.140437 12.434868 2.0558014 12.350674 2.0558014 12.246817 C 2.0558014 12.14296 2.140437 12.058766 2.2448407 12.058766 L 15.898493 12.058766 C 16.002897 12.058766 16.087532 12.14296 16.087532 12.246817 Z" stroke="gray" stroke-linecap="round" stroke-linejoin="round" stroke-width="0"/>
                  </g>
                </g>
              </g>
              <g id="Group_59">
                <title>Group_39</title>
                <g id="Group_62">
                  <title>Graphic_41</title>
                  <g id="Graphic_63">
                    <path d="M 14.898652 14.926542 C 14.898652 15.0304 14.814017 15.114593 14.709614 15.114593 L 2.2448407 15.114593 C 2.140437 15.114593 2.0558014 15.0304 2.0558014 14.926542 C 2.0558014 14.822685 2.140437 14.738491 2.2448407 14.738491 L 14.709614 14.738491 C 14.814017 14.738491 14.898652 14.822685 14.898652 14.926542 Z" fill="#333"/>
                  </g>
                </g>
                <g id="Group_60">
                  <title>Graphic_40</title>
                  <g id="Graphic_61">
                    <path d="M 14.898652 14.926542 C 14.898652 15.0304 14.814017 15.114593 14.709614 15.114593 L 2.2448407 15.114593 C 2.140437 15.114593 2.0558014 15.0304 2.0558014 14.926542 C 2.0558014 14.822685 2.140437 14.738491 2.2448407 14.738491 L 14.709614 14.738491 C 14.814017 14.738491 14.898652 14.822685 14.898652 14.926542 Z" stroke="gray" stroke-linecap="round" stroke-linejoin="round" stroke-width="0"/>
                  </g>
                </g>
              </g>
              <g id="Group_54">
                <title>Group_36</title>
                <g id="Group_57">
                  <title>Graphic_38</title>
                  <g id="Graphic_58">
                    <path d="M 14.898652 17.60627 C 14.898652 17.710125 14.814017 17.794319 14.709614 17.794319 L 2.2448407 17.794319 C 2.140437 17.794319 2.0558014 17.710125 2.0558014 17.60627 C 2.0558014 17.50241 2.140437 17.418217 2.2448407 17.418217 L 14.709614 17.418217 C 14.814017 17.418217 14.898652 17.50241 14.898652 17.60627 Z" fill="#333"/>
                  </g>
                </g>
                <g id="Group_55">
                  <title>Graphic_37</title>
                  <g id="Graphic_56">
                    <path d="M 14.898652 17.60627 C 14.898652 17.710125 14.814017 17.794319 14.709614 17.794319 L 2.2448407 17.794319 C 2.140437 17.794319 2.0558014 17.710125 2.0558014 17.60627 C 2.0558014 17.50241 2.140437 17.418217 2.2448407 17.418217 L 14.709614 17.418217 C 14.814017 17.418217 14.898652 17.50241 14.898652 17.60627 Z" stroke="gray" stroke-linecap="round" stroke-linejoin="round" stroke-width="0"/>
                  </g>
                </g>
              </g>
              <g id="Group_49">
                <title>Group_33</title>
                <g id="Group_52">
                  <title>Graphic_35</title>
                  <g id="Graphic_53">
                    <path d="M 16.954454 20.285994 C 16.954454 20.389852 16.869819 20.474046 16.765415 20.474046 L 2.2448407 20.474046 C 2.140437 20.474046 2.0558014 20.389852 2.0558014 20.285994 C 2.0558014 20.182135 2.140437 20.097943 2.2448407 20.097943 L 16.765415 20.097943 C 16.869819 20.097943 16.954454 20.182135 16.954454 20.285994 Z" fill="#333"/>
                  </g>
                </g>
                <g id="Group_50">
                  <title>Graphic_34</title>
                  <g id="Graphic_51">
                    <path d="M 16.954454 20.285994 C 16.954454 20.389852 16.869819 20.474046 16.765415 20.474046 L 2.2448407 20.474046 C 2.140437 20.474046 2.0558014 20.389852 2.0558014 20.285994 C 2.0558014 20.182135 2.140437 20.097943 2.2448407 20.097943 L 16.765415 20.097943 C 16.869819 20.097943 16.954454 20.182135 16.954454 20.285994 Z" stroke="gray" stroke-linecap="round" stroke-linejoin="round" stroke-width="0"/>
                  </g>
                </g>
              </g>
              <g id="Group_44">
                <title>Group_30</title>
                <g id="Group_47">
                  <title>Graphic_32</title>
                  <g id="Graphic_48">
                    <path d="M 18.773956 2.4681685 C 18.773956 2.5720262 18.68932 2.6562195 18.584917 2.6562195 L 14.756874 2.6562195 C 14.65247 2.6562195 14.567834 2.5720262 14.567834 2.4681685 C 14.567834 2.3643106 14.65247 2.2801176 14.756874 2.2801176 L 18.584917 2.2801176 C 18.68932 2.2801176 18.773956 2.3643106 18.773956 2.4681685 Z" fill="#333"/>
                  </g>
                </g>
                <g id="Group_45">
                  <title>Graphic_31</title>
                  <g id="Graphic_46">
                    <path d="M 18.773956 2.4681685 C 18.773956 2.5720262 18.68932 2.6562195 18.584917 2.6562195 L 14.756874 2.6562195 C 14.65247 2.6562195 14.567834 2.5720262 14.567834 2.4681685 C 14.567834 2.3643106 14.65247 2.2801176 14.756874 2.2801176 L 18.584917 2.2801176 C 18.68932 2.2801176 18.773956 2.3643106 18.773956 2.4681685 Z" stroke="gray" stroke-linecap="round" stroke-linejoin="round" stroke-width="0"/>
                  </g>
                </g>
              </g>
            </g>
            <g id="Group_5">
              <title>Group_3</title>
              <g id="Group_6">
                <title>Group_4</title>
                <g id="Group_40">
                  <title>Group_27</title>
                  <g id="Group_41">
                    <title>Graphic_28</title>
                    <g id="Graphic_42">
                      <path d="M 13.26816 19.311043 L 19.767908 12.845275 L 20.853985 13.925674 L 14.354237 20.39144 Z" fill="#f0bf5e"/>
                    </g>
                  </g>
                </g>
                <g id="Group_37">
                  <title>Group_25</title>
                  <g id="Group_38">
                    <title>Graphic_26</title>
                    <g id="Graphic_39">
                      <path d="M 14.354237 20.39144 L 20.853985 13.925674 L 21.94006 15.006072 L 15.440312 21.471837 Z" fill="#d8af62"/>
                    </g>
                  </g>
                </g>
                <g id="Group_34">
                  <title>Group_23</title>
                  <g id="Group_35">
                    <title>Graphic_24</title>
                    <g id="Graphic_36">
                      <path d="M 20.102085 12.512845 L 21.689428 10.933802 C 21.873987 10.750206 22.173222 10.750206 22.357782 10.933802 L 22.775502 11.349339 C 22.960064 11.532935 22.960064 11.830604 22.775502 12.0142 L 21.188163 13.593243 C 21.0036 13.77684 20.704369 13.77684 20.519807 13.593243 L 20.102085 13.177705 C 19.917525 12.994109 19.917525 12.696441 20.102085 12.512845 Z" fill="#f15d4f"/>
                    </g>
                  </g>
                </g>
                <g id="Group_31">
                  <title>Group_21</title>
                  <g id="Group_32">
                    <title>Graphic_22</title>
                    <g id="Graphic_33">
                      <path d="M 21.188163 13.593243 L 22.775502 12.0142 C 22.960064 11.830604 23.259297 11.830604 23.443858 12.0142 L 23.86158 12.429737 C 24.04614 12.613333 24.04614 12.911002 23.86158 13.094598 L 22.274237 14.673641 C 22.089675 14.857237 21.790444 14.857237 21.605883 14.673641 L 21.188163 14.258104 C 21.0036 14.074507 21.0036 13.77684 21.188163 13.593243 Z" fill="#d76154"/>
                    </g>
                  </g>
                </g>
                <g id="Group_28">
                  <title>Group_19</title>
                  <g id="Group_29">
                    <title>Graphic_20</title>
                    <g id="Graphic_30">
                      <path d="M 19.767908 12.845275 L 20.965782 11.653663 L 22.051858 12.734062 L 20.853985 13.925674 Z" fill="#f05d4e"/>
                    </g>
                  </g>
                </g>
                <g id="Group_25">
                  <title>Group_17</title>
                  <g id="Group_26">
                    <title>Graphic_18</title>
                    <g id="Graphic_27">
                      <path d="M 20.853985 13.925674 L 22.051858 12.734062 L 23.137937 13.81446 L 21.94006 15.006072 Z" fill="#d76154"/>
                    </g>
                  </g>
                </g>
                <g id="Group_22">
                  <title>Group_15</title>
                  <g id="Group_23">
                    <title>Graphic_16</title>
                    <g id="Graphic_24">
                      <path d="M 22.051858 12.734062 L 23.10968 11.68177 L 23.82816 12.396495 L 22.77034 13.448787 Z" fill="#d76154"/>
                    </g>
                  </g>
                </g>
                <g id="Group_19">
                  <title>Group_13</title>
                  <g id="Group_20">
                    <title>Graphic_14</title>
                    <g id="Graphic_21">
                      <path d="M 21.333378 12.019336 L 22.391198 10.967044 L 23.10968 11.68177 L 22.051858 12.734062 Z" fill="#f05d4e"/>
                    </g>
                  </g>
                </g>
                <g id="Group_16">
                  <title>Group_11</title>
                  <g id="Group_17">
                    <title>Graphic_12</title>
                    <g id="Graphic_18">
                      <path d="M 13.26816 19.311043 L 12.616515 22.12008 L 14.354237 20.39144 Z" fill="#dfcfc3"/>
                    </g>
                  </g>
                </g>
                <g id="Group_13">
                  <title>Group_9</title>
                  <g id="Group_14">
                    <title>Graphic_10</title>
                    <g id="Graphic_15">
                      <path d="M 15.440312 21.471837 L 12.616515 22.12008 L 14.354237 20.39144 Z" fill="#cabbb1"/>
                    </g>
                  </g>
                </g>
                <g id="Group_10">
                  <title>Group_7</title>
                  <g id="Group_11">
                    <title>Graphic_8</title>
                    <g id="Graphic_12">
                      <path d="M 12.464313 22.032136 L 12.77844 21.71965 C 12.852265 21.64621 12.971957 21.64621 13.045782 21.71965 C 13.119606 21.793088 13.119606 21.912156 13.045782 21.985593 L 12.731656 22.298078 C 12.657831 22.371516 12.538138 22.371516 12.464313 22.298078 C 12.390489 22.224638 12.390489 22.105573 12.464313 22.032136 Z" fill="#ce2c00"/>
                    </g>
                  </g>
                </g>
                <g id="Group_7">
                  <title>Group_5</title>
                  <g id="Group_8">
                    <title>Graphic_6</title>
                    <g id="Graphic_9">
                      <path d="M 12.430896 22.065377 L 12.23039 22.53078 L 12.698238 22.33132 Z" fill="#ce2c00"/>
                    </g>
                  </g>
                </g>
              </g>
            </g>
          </g>
        </g>
      </g>
    </g>
  </g>
</svg>
