<?xml version="1.0" encoding="UTF-8" standalone="no"?>
<!DOCTYPE svg PUBLIC "-//W3C//DTD SVG 1.1//EN" "http://www.w3.org/Graphics/SVG/1.1/DTD/svg11.dtd">
<svg xmlns="http://www.w3.org/2000/svg" xmlns:xl="http://www.w3.org/1999/xlink" version="1.1" xmlns:dc="http://purl.org/dc/elements/1.1/" viewBox="6.75 7.25 24.260314 24" width="24.260314" height="24">
  <defs/>
  <g id="Canvas_1" stroke="none" stroke-dasharray="none" fill="none" stroke-opacity="1" fill-opacity="1">
    <title>Canvas 1</title>
    <g id="Canvas_1_Layer_1">
      <title>Layer 1</title>
      <g id="Group_2">
        <title>Canvas_1</title>
        <g id="Group_3">
          <title>Canvas_1_Layer_1</title>
          <g id="Group_4">
            <title>Group_2</title>
            <g id="Group_43">
              <title>Group_29</title>
              <g id="Group_126">
                <title>Group_105</title>
                <g id="Group_127">
                  <title>Graphic_106</title>
                  <g id="Graphic_128">
                    <path d="M 7.749973 7.5 L 25.947848 7.5 C 26.362048 7.5 26.697822 7.850367 26.697822 8.282566 L 26.697822 30.217434 C 26.697822 30.649633 26.362048 31 25.947848 31 L 7.749973 31 C 7.335774 31 7 30.649633 7 30.217434 L 7 8.282566 C 7 7.850367 7.335774 7.5 7.749973 7.5 Z" stroke="black" stroke-linecap="round" stroke-linejoin="round" stroke-width=".5"/>
                  </g>
                </g>
              </g>
              <g id="Group_121">
                <title>Group_102</title>
                <g id="Group_124">
                  <title>Graphic_104</title>
                  <g id="Graphic_125">
                    <rect x="9.643431" y="9.998151" width=".36008466" height="6.685125" fill="#333"/>
                  </g>
                </g>
                <g id="Group_122">
                  <title>Graphic_103</title>
                  <g id="Graphic_123">
                    <rect x="9.643431" y="9.998151" width=".36008466" height="6.685125" stroke="black" stroke-linecap="round" stroke-linejoin="round" stroke-width=".5"/>
                  </g>
                </g>
              </g>
              <g id="Group_116">
                <title>Group_96</title>
                <g id="Group_119">
                  <title>Graphic_98</title>
                  <g id="Graphic_120">
                    <rect x="10.735505" y="9.975027" width=".18004234" height="6.736156" fill="#333"/>
                  </g>
                </g>
                <g id="Group_117">
                  <title>Graphic_97</title>
                  <g id="Graphic_118">
                    <rect x="10.735505" y="9.975027" width=".18004234" height="6.736156" stroke="black" stroke-linecap="round" stroke-linejoin="round" stroke-width=".5"/>
                  </g>
                </g>
              </g>
              <g id="Group_111">
                <title>Group_90</title>
                <g id="Group_114">
                  <title>Graphic_92</title>
                  <g id="Graphic_115">
                    <rect x="12.26645" y="9.998151" width=".36008466" height="6.685125" fill="#333"/>
                  </g>
                </g>
                <g id="Group_112">
                  <title>Graphic_91</title>
                  <g id="Graphic_113">
                    <rect x="12.26645" y="9.998151" width=".36008466" height="6.685125" stroke="black" stroke-linecap="round" stroke-linejoin="round" stroke-width=".5"/>
                  </g>
                </g>
              </g>
              <g id="Group_106">
                <title>Group_75</title>
                <g id="Group_109">
                  <title>Graphic_77</title>
                  <g id="Graphic_110">
                    <rect x="14.480153" y="10.023667" width=".36008466" height="6.634093" fill="#333"/>
                  </g>
                </g>
                <g id="Group_107">
                  <title>Graphic_76</title>
                  <g id="Graphic_108">
                    <rect x="14.480153" y="10.023667" width=".36008466" height="6.634093" stroke="black" stroke-linecap="round" stroke-linejoin="round" stroke-width=".5"/>
                  </g>
                </g>
              </g>
              <g id="Group_101">
                <title>Group_69</title>
                <g id="Group_104">
                  <title>Graphic_71</title>
                  <g id="Graphic_105">
                    <rect x="15.602019" y="9.947119" width=".18004234" height="6.787188" fill="#333"/>
                  </g>
                </g>
                <g id="Group_102">
                  <title>Graphic_70</title>
                  <g id="Graphic_103">
                    <rect x="15.602019" y="9.947119" width=".18004234" height="6.787188" stroke="black" stroke-linecap="round" stroke-linejoin="round" stroke-width=".5"/>
                  </g>
                </g>
              </g>
              <g id="Group_96">
                <title>Group_63</title>
                <g id="Group_99">
                  <title>Graphic_65</title>
                  <g id="Graphic_100">
                    <rect x="17.202149" y="9.998151" width=".18004234" height="6.685125" fill="#333"/>
                  </g>
                </g>
                <g id="Group_97">
                  <title>Graphic_64</title>
                  <g id="Graphic_98">
                    <rect x="17.202149" y="9.998151" width=".18004234" height="6.685125" stroke="black" stroke-linecap="round" stroke-linejoin="round" stroke-width=".5"/>
                  </g>
                </g>
              </g>
              <g id="Group_91">
                <title>Group_57</title>
                <g id="Group_94">
                  <title>Graphic_59</title>
                  <g id="Graphic_95">
                    <rect x="18.196318" y="10.051574" width=".18004234" height="6.583062" fill="#333"/>
                  </g>
                </g>
                <g id="Group_92">
                  <title>Graphic_58</title>
                  <g id="Graphic_93">
                    <rect x="18.196318" y="10.051574" width=".18004234" height="6.583062" stroke="black" stroke-linecap="round" stroke-linejoin="round" stroke-width=".5"/>
                  </g>
                </g>
              </g>
              <g id="Group_86">
                <title>Group_54</title>
                <g id="Group_89">
                  <title>Graphic_56</title>
                  <g id="Graphic_90">
                    <rect x="13.61368" y="9.947119" width=".18004234" height="6.787188" fill="#333"/>
                  </g>
                </g>
                <g id="Group_87">
                  <title>Graphic_55</title>
                  <g id="Graphic_88">
                    <rect x="13.61368" y="9.947119" width=".18004234" height="6.787188" stroke="black" stroke-linecap="round" stroke-linejoin="round" stroke-width=".5"/>
                  </g>
                </g>
              </g>
              <g id="Group_80">
                <title>Group_42</title>
                <g id="Group_84">
                  <title>Graphic_44</title>
                  <g id="Graphic_85">
                    <path d="M 22.754042 20.229167 C 22.754042 20.526595 22.673434 20.767709 22.573999 20.767709 L 9.57016 20.767709 C 9.470725 20.767709 9.390118 20.526595 9.390118 20.229167 C 9.390118 19.931738 9.470725 19.690625 9.57016 19.690625 L 22.573999 19.690625 C 22.673434 19.690625 22.754042 19.931738 22.754042 20.229167 Z" fill="black"/>
                  </g>
                </g>
                <g id="Group_81">
                  <title>Graphic_43</title>
                  <g id="Graphic_83">
                    <path d="M 22.754042 20.229167 C 22.754042 20.526595 22.673434 20.767709 22.573999 20.767709 L 9.57016 20.767709 C 9.470725 20.767709 9.390118 20.526595 9.390118 20.229167 C 9.390118 19.931738 9.470725 19.690625 9.57016 19.690625 L 22.573999 19.690625 C 22.673434 19.690625 22.754042 19.931738 22.754042 20.229167 Z" fill="black"/>
                  </g>
                  <g id="Graphic_82">
                    <path d="M 22.754042 20.229167 C 22.754042 20.526595 22.673434 20.767709 22.573999 20.767709 L 9.57016 20.767709 C 9.470725 20.767709 9.390118 20.526595 9.390118 20.229167 C 9.390118 19.931738 9.470725 19.690625 9.57016 19.690625 L 22.573999 19.690625 C 22.673434 19.690625 22.754042 19.931738 22.754042 20.229167 Z" stroke="black" stroke-linecap="round" stroke-linejoin="round" stroke-width="0"/>
                  </g>
                </g>
              </g>
              <g id="Group_74">
                <title>Group_39</title>
                <g id="Group_78">
                  <title>Graphic_41</title>
                  <g id="Graphic_79">
                    <path d="M 21.621744 22.52702 C 21.621744 22.824448 21.541137 23.06556 21.441702 23.06556 L 9.57016 23.06556 C 9.470725 23.06556 9.390118 22.824448 9.390118 22.52702 C 9.390118 22.22959 9.470725 21.988477 9.57016 21.988477 L 21.441702 21.988477 C 21.541137 21.988477 21.621744 22.22959 21.621744 22.52702 Z" fill="black"/>
                  </g>
                </g>
                <g id="Group_75">
                  <title>Graphic_40</title>
                  <g id="Graphic_77">
                    <path d="M 21.621744 22.52702 C 21.621744 22.824448 21.541137 23.06556 21.441702 23.06556 L 9.57016 23.06556 C 9.470725 23.06556 9.390118 22.824448 9.390118 22.52702 C 9.390118 22.22959 9.470725 21.988477 9.57016 21.988477 L 21.441702 21.988477 C 21.541137 21.988477 21.621744 22.22959 21.621744 22.52702 Z" fill="black"/>
                  </g>
                  <g id="Graphic_76">
                    <path d="M 21.621744 22.52702 C 21.621744 22.824448 21.541137 23.06556 21.441702 23.06556 L 9.57016 23.06556 C 9.470725 23.06556 9.390118 22.824448 9.390118 22.52702 C 9.390118 22.22959 9.470725 21.988477 9.57016 21.988477 L 21.441702 21.988477 C 21.541137 21.988477 21.621744 22.22959 21.621744 22.52702 Z" stroke="black" stroke-linecap="round" stroke-linejoin="round" stroke-width="0"/>
                  </g>
                </g>
              </g>
              <g id="Group_68">
                <title>Group_36</title>
                <g id="Group_72">
                  <title>Graphic_38</title>
                  <g id="Graphic_73">
                    <path d="M 19.961998 24.824873 C 19.961998 25.1223 19.892328 25.363414 19.806386 25.363414 L 9.54573 25.363414 C 9.459788 25.363414 9.390118 25.1223 9.390118 24.824873 C 9.390118 24.527444 9.459788 24.28633 9.54573 24.28633 L 19.806386 24.28633 C 19.892328 24.28633 19.961998 24.527444 19.961998 24.824873 Z" fill="black"/>
                  </g>
                </g>
                <g id="Group_69">
                  <title>Graphic_37</title>
                  <g id="Graphic_71">
                    <path d="M 19.961998 24.824873 C 19.961998 25.1223 19.892328 25.363414 19.806386 25.363414 L 9.54573 25.363414 C 9.459788 25.363414 9.390118 25.1223 9.390118 24.824873 C 9.390118 24.527444 9.459788 24.28633 9.54573 24.28633 L 19.806386 24.28633 C 19.892328 24.28633 19.961998 24.527444 19.961998 24.824873 Z" fill="black"/>
                  </g>
                  <g id="Graphic_70">
                    <path d="M 19.961998 24.824873 C 19.961998 25.1223 19.892328 25.363414 19.806386 25.363414 L 9.54573 25.363414 C 9.459788 25.363414 9.390118 25.1223 9.390118 24.824873 C 9.390118 24.527444 9.459788 24.28633 9.54573 24.28633 L 19.806386 24.28633 C 19.892328 24.28633 19.961998 24.527444 19.961998 24.824873 Z" stroke="black" stroke-linecap="round" stroke-linejoin="round" stroke-width="0"/>
                  </g>
                </g>
              </g>
              <g id="Group_62">
                <title>Group_33</title>
                <g id="Group_66">
                  <title>Graphic_35</title>
                  <g id="Graphic_67">
                    <path d="M 22.754042 27.122725 C 22.754042 27.420154 22.678124 27.661267 22.584475 27.661267 L 9.559684 27.661267 C 9.466035 27.661267 9.390118 27.420154 9.390118 27.122725 C 9.390118 26.825298 9.466035 26.584184 9.559684 26.584184 L 22.584475 26.584184 C 22.678124 26.584184 22.754042 26.825298 22.754042 27.122725 Z" fill="black"/>
                  </g>
                </g>
                <g id="Group_63">
                  <title>Graphic_34</title>
                  <g id="Graphic_65">
                    <path d="M 22.754042 27.122725 C 22.754042 27.420154 22.678124 27.661267 22.584475 27.661267 L 9.559684 27.661267 C 9.466035 27.661267 9.390118 27.420154 9.390118 27.122725 C 9.390118 26.825298 9.466035 26.584184 9.559684 26.584184 L 22.584475 26.584184 C 22.678124 26.584184 22.754042 26.825298 22.754042 27.122725 Z" fill="black"/>
                  </g>
                  <g id="Graphic_64">
                    <path d="M 22.754042 27.122725 C 22.754042 27.420154 22.678124 27.661267 22.584475 27.661267 L 9.559684 27.661267 C 9.466035 27.661267 9.390118 27.420154 9.390118 27.122725 C 9.390118 26.825298 9.466035 26.584184 9.559684 26.584184 L 22.584475 26.584184 C 22.678124 26.584184 22.754042 26.825298 22.754042 27.122725 Z" stroke="black" stroke-linecap="round" stroke-linejoin="round" stroke-width="0"/>
                  </g>
                </g>
              </g>
              <g id="Group_56">
                <title>Group_30</title>
                <g id="Group_60">
                  <title>Graphic_32</title>
                  <g id="Graphic_61">
                    <path d="M 24.66105 11.044297 C 24.66105 11.341725 24.58317 11.582838 24.487098 11.582838 L 20.964569 11.582838 C 20.868498 11.582838 20.790617 11.341725 20.790617 11.044297 C 20.790617 10.746868 20.868498 10.505755 20.964569 10.505755 L 24.487098 10.505755 C 24.58317 10.505755 24.66105 10.746868 24.66105 11.044297 Z" fill="black"/>
                  </g>
                </g>
                <g id="Group_57">
                  <title>Graphic_31</title>
                  <g id="Graphic_59">
                    <path d="M 24.66105 11.044297 C 24.66105 11.341725 24.58317 11.582838 24.487098 11.582838 L 20.964569 11.582838 C 20.868498 11.582838 20.790617 11.341725 20.790617 11.044297 C 20.790617 10.746868 20.868498 10.505755 20.964569 10.505755 L 24.487098 10.505755 C 24.58317 10.505755 24.66105 10.746868 24.66105 11.044297 Z" fill="black"/>
                  </g>
                  <g id="Graphic_58">
                    <path d="M 24.66105 11.044297 C 24.66105 11.341725 24.58317 11.582838 24.487098 11.582838 L 20.964569 11.582838 C 20.868498 11.582838 20.790617 11.341725 20.790617 11.044297 C 20.790617 10.746868 20.868498 10.505755 20.964569 10.505755 L 24.487098 10.505755 C 24.58317 10.505755 24.66105 10.746868 24.66105 11.044297 Z" stroke="black" stroke-linecap="round" stroke-linejoin="round" stroke-width="0"/>
                  </g>
                </g>
              </g>
              <g id="Group_50">
                <title>Group_107</title>
                <g id="Group_54">
                  <title>Graphic_109</title>
                  <g id="Graphic_55">
                    <path d="M 23.148488 13.299888 C 23.148488 13.597317 23.101043 13.83843 23.042517 13.83843 L 20.896588 13.83843 C 20.838061 13.83843 20.790617 13.597317 20.790617 13.299888 C 20.790617 13.00246 20.838061 12.761346 20.896588 12.761346 L 23.042517 12.761346 C 23.101043 12.761346 23.148488 13.00246 23.148488 13.299888 Z" fill="black"/>
                  </g>
                </g>
                <g id="Group_51">
                  <title>Graphic_108</title>
                  <g id="Graphic_53">
                    <path d="M 23.148488 13.299888 C 23.148488 13.597317 23.101043 13.83843 23.042517 13.83843 L 20.896588 13.83843 C 20.838061 13.83843 20.790617 13.597317 20.790617 13.299888 C 20.790617 13.00246 20.838061 12.761346 20.896588 12.761346 L 23.042517 12.761346 C 23.101043 12.761346 23.148488 13.00246 23.148488 13.299888 Z" fill="black"/>
                  </g>
                  <g id="Graphic_52">
                    <path d="M 23.148488 13.299888 C 23.148488 13.597317 23.101043 13.83843 23.042517 13.83843 L 20.896588 13.83843 C 20.838061 13.83843 20.790617 13.597317 20.790617 13.299888 C 20.790617 13.00246 20.838061 12.761346 20.896588 12.761346 L 23.042517 12.761346 C 23.101043 12.761346 23.148488 13.00246 23.148488 13.299888 Z" stroke="black" stroke-linecap="round" stroke-linejoin="round" stroke-width="0"/>
                  </g>
                </g>
              </g>
              <g id="Group_44">
                <title>Group_110</title>
                <g id="Group_48">
                  <title>Graphic_112</title>
                  <g id="Graphic_49">
                    <path d="M 24.151048 15.55548 C 24.151048 15.852908 24.083428 16.094021 24.000017 16.094021 L 20.941647 16.094021 C 20.858235 16.094021 20.790617 15.852908 20.790617 15.55548 C 20.790617 15.258052 20.858235 15.016938 20.941647 15.016938 L 24.000017 15.016938 C 24.083428 15.016938 24.151048 15.258052 24.151048 15.55548 Z" fill="black"/>
                  </g>
                </g>
                <g id="Group_45">
                  <title>Graphic_111</title>
                  <g id="Graphic_47">
                    <path d="M 24.151048 15.55548 C 24.151048 15.852908 24.083428 16.094021 24.000017 16.094021 L 20.941647 16.094021 C 20.858235 16.094021 20.790617 15.852908 20.790617 15.55548 C 20.790617 15.258052 20.858235 15.016938 20.941647 15.016938 L 24.000017 15.016938 C 24.083428 15.016938 24.151048 15.258052 24.151048 15.55548 Z" fill="black"/>
                  </g>
                  <g id="Graphic_46">
                    <path d="M 24.151048 15.55548 C 24.151048 15.852908 24.083428 16.094021 24.000017 16.094021 L 20.941647 16.094021 C 20.858235 16.094021 20.790617 15.852908 20.790617 15.55548 C 20.790617 15.258052 20.858235 15.016938 20.941647 15.016938 L 24.000017 15.016938 C 24.083428 15.016938 24.151048 15.258052 24.151048 15.55548 Z" stroke="black" stroke-linecap="round" stroke-linejoin="round" stroke-width="0"/>
                  </g>
                </g>
              </g>
            </g>
            <g id="Group_5">
              <title>Group_3</title>
              <g id="Group_6">
                <title>Group_4</title>
                <g id="Group_40">
                  <title>Group_27</title>
                  <g id="Group_41">
                    <title>Graphic_28</title>
                    <g id="Graphic_42">
                      <path d="M 20.789232 25.514503 L 26.97964 18.674753 L 28.014027 19.817642 L 21.823618 26.65739 Z" fill="#f0bf5e"/>
                    </g>
                  </g>
                </g>
                <g id="Group_37">
                  <title>Group_25</title>
                  <g id="Group_38">
                    <title>Graphic_26</title>
                    <g id="Graphic_39">
                      <path d="M 21.823618 26.65739 L 28.014027 19.817642 L 29.048414 20.96053 L 22.858004 27.80028 Z" fill="#d8af62"/>
                    </g>
                  </g>
                </g>
                <g id="Group_34">
                  <title>Group_23</title>
                  <g id="Group_35">
                    <title>Graphic_24</title>
                    <g id="Graphic_36">
                      <path d="M 27.297912 18.323095 L 28.80971 16.65272 C 28.985484 16.458504 29.270478 16.458504 29.446253 16.65272 L 29.844095 17.092292 C 30.019873 17.286507 30.019873 17.601393 29.844095 17.795608 L 28.3323 19.465983 C 28.156522 19.660199 27.87153 19.660199 27.695753 19.465983 L 27.297912 19.02641 C 27.122134 18.832195 27.122134 18.51731 27.297912 18.323095 Z" fill="#f15d4f"/>
                    </g>
                  </g>
                </g>
                <g id="Group_31">
                  <title>Group_21</title>
                  <g id="Group_32">
                    <title>Graphic_22</title>
                    <g id="Graphic_33">
                      <path d="M 28.3323 19.465983 L 29.844095 17.795608 C 30.019873 17.601393 30.304864 17.601393 30.48064 17.795608 L 30.87848 18.23518 C 31.054258 18.429395 31.054258 18.744282 30.87848 18.938496 L 29.366686 20.608872 C 29.19091 20.803087 28.905918 20.803087 28.73014 20.608872 L 28.3323 20.1693 C 28.156522 19.975084 28.156522 19.660199 28.3323 19.465983 Z" fill="#d76154"/>
                    </g>
                  </g>
                </g>
                <g id="Group_28">
                  <title>Group_19</title>
                  <g id="Group_29">
                    <title>Graphic_20</title>
                    <g id="Graphic_30">
                      <path d="M 26.97964 18.674753 L 28.120504 17.414218 L 29.15489 18.557107 L 28.014027 19.817642 Z" fill="#f05d4e"/>
                    </g>
                  </g>
                </g>
                <g id="Group_25">
                  <title>Group_17</title>
                  <g id="Group_26">
                    <title>Graphic_18</title>
                    <g id="Graphic_27">
                      <path d="M 28.014027 19.817642 L 29.15489 18.557107 L 30.18928 19.699995 L 29.048414 20.96053 Z" fill="#d76154"/>
                    </g>
                  </g>
                </g>
                <g id="Group_22">
                  <title>Group_15</title>
                  <g id="Group_23">
                    <title>Graphic_16</title>
                    <g id="Graphic_24">
                      <path d="M 29.15489 18.557107 L 30.162368 17.44395 L 30.846654 18.200015 L 29.839178 19.313172 Z" fill="#d76154"/>
                    </g>
                  </g>
                </g>
                <g id="Group_19">
                  <title>Group_13</title>
                  <g id="Group_20">
                    <title>Graphic_14</title>
                    <g id="Graphic_21">
                      <path d="M 28.470605 17.801042 L 29.47808 16.687885 L 30.162368 17.44395 L 29.15489 18.557107 Z" fill="#f05d4e"/>
                    </g>
                  </g>
                </g>
                <g id="Group_16">
                  <title>Group_11</title>
                  <g id="Group_17">
                    <title>Graphic_12</title>
                    <g id="Graphic_18">
                      <path d="M 20.789232 25.514503 L 20.1686 28.486013 L 21.823618 26.65739 Z" fill="#dfcfc3"/>
                    </g>
                  </g>
                </g>
                <g id="Group_13">
                  <title>Group_9</title>
                  <g id="Group_14">
                    <title>Graphic_10</title>
                    <g id="Graphic_15">
                      <path d="M 22.858004 27.80028 L 20.1686 28.486013 L 21.823618 26.65739 Z" fill="#cabbb1"/>
                    </g>
                  </g>
                </g>
                <g id="Group_10">
                  <title>Group_7</title>
                  <g id="Group_11">
                    <title>Graphic_8</title>
                    <g id="Graphic_12">
                      <path d="M 20.023642 28.392982 L 20.322819 28.062423 C 20.39313 27.984738 20.507126 27.984738 20.577438 28.062423 C 20.647748 28.14011 20.647748 28.266063 20.577438 28.34375 L 20.27826 28.674308 C 20.20795 28.751994 20.093954 28.751994 20.023642 28.674308 C 19.95333 28.59662 19.95333 28.470668 20.023642 28.392982 Z" fill="#ce2c00"/>
                    </g>
                  </g>
                </g>
                <g id="Group_7">
                  <title>Group_5</title>
                  <g id="Group_8">
                    <title>Graphic_6</title>
                    <g id="Graphic_9">
                      <path d="M 19.991816 28.428148 L 19.80085 28.92047 L 20.246434 28.709474 Z" fill="#ce2c00"/>
                    </g>
                  </g>
                </g>
              </g>
            </g>
          </g>
        </g>
      </g>
    </g>
  </g>
</svg>
