<?xml version="1.0" encoding="UTF-8" standalone="no"?>
<!DOCTYPE svg PUBLIC "-//W3C//DTD SVG 1.1//EN" "http://www.w3.org/Graphics/SVG/1.1/DTD/svg11.dtd">
<svg xmlns="http://www.w3.org/2000/svg" xmlns:dc="http://purl.org/dc/elements/1.1/" xmlns:xl="http://www.w3.org/1999/xlink" version="1.1" viewBox="-2.5 -2.5 480 480" width="480" height="480">
  <defs/>
  <g id="Canvas_1" stroke="none" stroke-dasharray="none" fill-opacity="1" fill="none" stroke-opacity="1">
    <title>Canvas 1</title>
    <g id="Canvas_1_Layer_1">
      <title>Layer 1</title>
      <g id="Group_2">
        <title>Canvas_1</title>
        <g id="Group_29">
          <title>Canvas_1_Zettel</title>
          <g id="Group_105">
            <title>Graphic_3</title>
            <g id="Graphic_106">
              <path d="M 21.69628 7.5 L 378.2972 7.5 C 386.41374 7.5 392.9935 14.365698 392.9935 22.834966 L 392.9935 452.66503 C 392.9935 461.1343 386.41374 468 378.2972 468 L 21.69628 468 C 13.579749 468 7 461.1343 7 452.66503 L 7 22.834966 C 7 14.365698 13.579749 7.5 21.69628 7.5 Z" stroke="black" stroke-linecap="round" stroke-linejoin="round" stroke-width="20"/>
            </g>
          </g>
          <g id="Group_102">
            <title>Graphic_18</title>
            <g id="Graphic_104">
              <rect x="58.8" y="56.453125" width="7.056127" height="131" fill="#333"/>
            </g>
            <g id="Graphic_103">
              <rect x="58.8" y="56.453125" width="7.056127" height="131" stroke="black" stroke-linecap="round" stroke-linejoin="miter" stroke-width="9"/>
            </g>
          </g>
          <g id="Group_96">
            <title>Graphic_20</title>
            <g id="Graphic_98">
              <rect x="80.2" y="56" width="3.5280637" height="132" fill="#333"/>
            </g>
            <g id="Graphic_97">
              <rect x="80.2" y="56" width="3.5280637" height="132" stroke="black" stroke-linecap="round" stroke-linejoin="miter" stroke-width="8"/>
            </g>
          </g>
          <g id="Group_90">
            <title>Graphic_22</title>
            <g id="Graphic_92">
              <rect x="110.2" y="56.453125" width="7.056127" height="131" fill="#333"/>
            </g>
            <g id="Graphic_91">
              <rect x="110.2" y="56.453125" width="7.056127" height="131" stroke="black" stroke-linecap="round" stroke-linejoin="miter" stroke-width="9"/>
            </g>
          </g>
          <g id="Group_75">
            <title>Graphic_28</title>
            <g id="Graphic_77">
              <rect x="153.57917" y="56.953125" width="7.056127" height="130" fill="#333"/>
            </g>
            <g id="Graphic_76">
              <rect x="153.57917" y="56.953125" width="7.056127" height="130" stroke="black" stroke-linecap="round" stroke-linejoin="miter" stroke-width="10"/>
            </g>
          </g>
          <g id="Group_69">
            <title>Graphic_30</title>
            <g id="Graphic_71">
              <rect x="175.56296" y="55.453125" width="3.5280637" height="133" fill="#333"/>
            </g>
            <g id="Graphic_70">
              <rect x="175.56296" y="55.453125" width="3.5280637" height="133" stroke="black" stroke-linecap="round" stroke-linejoin="miter" stroke-width="7"/>
            </g>
          </g>
          <g id="Group_63">
            <title>Graphic_32</title>
            <g id="Graphic_65">
              <rect x="206.9187" y="56.453125" width="3.5280637" height="131" fill="#333"/>
            </g>
            <g id="Graphic_64">
              <rect x="206.9187" y="56.453125" width="3.5280637" height="131" stroke="black" stroke-linecap="round" stroke-linejoin="miter" stroke-width="9"/>
            </g>
          </g>
          <g id="Group_57">
            <title>Graphic_34</title>
            <g id="Graphic_59">
              <rect x="226.40018" y="57.5" width="3.5280637" height="129" fill="#333"/>
            </g>
            <g id="Graphic_58">
              <rect x="226.40018" y="57.5" width="3.5280637" height="129" stroke="black" stroke-linecap="round" stroke-linejoin="miter" stroke-width="11"/>
            </g>
          </g>
          <g id="Group_54">
            <title>Graphic_37</title>
            <g id="Graphic_56">
              <rect x="136.6" y="55.453125" width="3.5280637" height="133" fill="#333"/>
            </g>
            <g id="Graphic_55">
              <rect x="136.6" y="55.453125" width="3.5280637" height="133" stroke="black" stroke-linecap="round" stroke-linejoin="miter" stroke-width="7"/>
            </g>
          </g>
          <g id="Group_42">
            <title>Graphic_42</title>
            <g id="Graphic_44">
              <path d="M 315.71218 256.9375 C 315.71218 262.76583 314.13262 267.49063 312.1841 267.49063 L 57.3642 267.49063 C 55.415704 267.49063 53.83614 262.76583 53.83614 256.9375 C 53.83614 251.10917 55.415704 246.38438 57.3642 246.38438 L 312.1841 246.38438 C 314.13262 246.38438 315.71218 251.10917 315.71218 256.9375 Z" fill="black"/>
            </g>
            <g id="Graphic_43">
              <path d="M 315.71218 256.9375 C 315.71218 262.76583 314.13262 267.49063 312.1841 267.49063 L 57.3642 267.49063 C 55.415704 267.49063 53.83614 262.76583 53.83614 256.9375 C 53.83614 251.10917 55.415704 246.38438 57.3642 246.38438 L 312.1841 246.38438 C 314.13262 246.38438 315.71218 251.10917 315.71218 256.9375 Z" fill="black"/>
              <path d="M 315.71218 256.9375 C 315.71218 262.76583 314.13262 267.49063 312.1841 267.49063 L 57.3642 267.49063 C 55.415704 267.49063 53.83614 262.76583 53.83614 256.9375 C 53.83614 251.10917 55.415704 246.38438 57.3642 246.38438 L 312.1841 246.38438 C 314.13262 246.38438 315.71218 251.10917 315.71218 256.9375 Z" stroke="black" stroke-linecap="round" stroke-linejoin="round" stroke-width="1"/>
            </g>
          </g>
          <g id="Group_39">
            <title>Graphic_43</title>
            <g id="Graphic_41">
              <path d="M 293.52397 301.96564 C 293.52397 307.79397 291.9444 312.51876 289.9959 312.51876 L 57.3642 312.51876 C 55.415704 312.51876 53.83614 307.79397 53.83614 301.96564 C 53.83614 296.1373 55.415704 291.4125 57.3642 291.4125 L 289.9959 291.4125 C 291.9444 291.4125 293.52397 296.1373 293.52397 301.96564 Z" fill="black"/>
            </g>
            <g id="Graphic_40">
              <path d="M 293.52397 301.96564 C 293.52397 307.79397 291.9444 312.51876 289.9959 312.51876 L 57.3642 312.51876 C 55.415704 312.51876 53.83614 307.79397 53.83614 301.96564 C 53.83614 296.1373 55.415704 291.4125 57.3642 291.4125 L 289.9959 291.4125 C 291.9444 291.4125 293.52397 296.1373 293.52397 301.96564 Z" fill="black"/>
              <path d="M 293.52397 301.96564 C 293.52397 307.79397 291.9444 312.51876 289.9959 312.51876 L 57.3642 312.51876 C 55.415704 312.51876 53.83614 307.79397 53.83614 301.96564 C 53.83614 296.1373 55.415704 291.4125 57.3642 291.4125 L 289.9959 291.4125 C 291.9444 291.4125 293.52397 296.1373 293.52397 301.96564 Z" stroke="black" stroke-linecap="round" stroke-linejoin="round" stroke-width="1"/>
            </g>
          </g>
          <g id="Group_36">
            <title>Graphic_44</title>
            <g id="Graphic_38">
              <path d="M 261 346.99378 C 261 352.8221 259.63477 357.5469 257.95067 357.5469 L 56.88547 357.5469 C 55.20137 357.5469 53.83614 352.8221 53.83614 346.99378 C 53.83614 341.16544 55.20137 336.44065 56.88547 336.44065 L 257.95067 336.44065 C 259.63477 336.44065 261 341.16544 261 346.99378 Z" fill="black"/>
            </g>
            <g id="Graphic_37">
              <path d="M 261 346.99378 C 261 352.8221 259.63477 357.5469 257.95067 357.5469 L 56.88547 357.5469 C 55.20137 357.5469 53.83614 352.8221 53.83614 346.99378 C 53.83614 341.16544 55.20137 336.44065 56.88547 336.44065 L 257.95067 336.44065 C 259.63477 336.44065 261 341.16544 261 346.99378 Z" fill="black"/>
              <path d="M 261 346.99378 C 261 352.8221 259.63477 357.5469 257.95067 357.5469 L 56.88547 357.5469 C 55.20137 357.5469 53.83614 352.8221 53.83614 346.99378 C 53.83614 341.16544 55.20137 336.44065 56.88547 336.44065 L 257.95067 336.44065 C 259.63477 336.44065 261 341.16544 261 346.99378 Z" stroke="black" stroke-linecap="round" stroke-linejoin="round" stroke-width="1"/>
            </g>
          </g>
          <g id="Group_33">
            <title>Graphic_45</title>
            <g id="Graphic_35">
              <path d="M 315.71218 392.0219 C 315.71218 397.85025 314.22452 402.57504 312.3894 402.57504 L 57.15891 402.57504 C 55.32379 402.57504 53.83614 397.85025 53.83614 392.0219 C 53.83614 386.1936 55.32379 381.4688 57.15891 381.4688 L 312.3894 381.4688 C 314.22452 381.4688 315.71218 386.1936 315.71218 392.0219 Z" fill="black"/>
            </g>
            <g id="Graphic_34">
              <path d="M 315.71218 392.0219 C 315.71218 397.85025 314.22452 402.57504 312.3894 402.57504 L 57.15891 402.57504 C 55.32379 402.57504 53.83614 397.85025 53.83614 392.0219 C 53.83614 386.1936 55.32379 381.4688 57.15891 381.4688 L 312.3894 381.4688 C 314.22452 381.4688 315.71218 386.1936 315.71218 392.0219 Z" fill="black"/>
              <path d="M 315.71218 392.0219 C 315.71218 397.85025 314.22452 402.57504 312.3894 402.57504 L 57.15891 402.57504 C 55.32379 402.57504 53.83614 397.85025 53.83614 392.0219 C 53.83614 386.1936 55.32379 381.4688 57.15891 381.4688 L 312.3894 381.4688 C 314.22452 381.4688 315.71218 386.1936 315.71218 392.0219 Z" stroke="black" stroke-linecap="round" stroke-linejoin="round" stroke-width="1"/>
            </g>
          </g>
          <g id="Group_30">
            <title>Graphic_46</title>
            <g id="Graphic_32">
              <path d="M 353.08144 76.95313 C 353.08144 82.78146 351.5553 87.50625 349.6727 87.50625 L 280.64612 87.50625 C 278.76354 87.50625 277.2374 82.78146 277.2374 76.95313 C 277.2374 71.12479 278.76354 66.4 280.64612 66.4 L 349.6727 66.4 C 351.5553 66.4 353.08144 71.12479 353.08144 76.95313 Z" fill="black"/>
            </g>
            <g id="Graphic_31">
              <path d="M 353.08144 76.95313 C 353.08144 82.78146 351.5553 87.50625 349.6727 87.50625 L 280.64612 87.50625 C 278.76354 87.50625 277.2374 82.78146 277.2374 76.95313 C 277.2374 71.12479 278.76354 66.4 280.64612 66.4 L 349.6727 66.4 C 351.5553 66.4 353.08144 71.12479 353.08144 76.95313 Z" fill="black"/>
              <path d="M 353.08144 76.95313 C 353.08144 82.78146 351.5553 87.50625 349.6727 87.50625 L 280.64612 87.50625 C 278.76354 87.50625 277.2374 82.78146 277.2374 76.95313 C 277.2374 71.12479 278.76354 66.4 280.64612 66.4 L 349.6727 66.4 C 351.5553 66.4 353.08144 71.12479 353.08144 76.95313 Z" stroke="black" stroke-linecap="round" stroke-linejoin="round" stroke-width="1"/>
            </g>
          </g>
          <g id="Group_107">
            <title>Graphic_46</title>
            <g id="Graphic_109">
              <path d="M 323.44165 121.15313 C 323.44165 126.98146 322.51193 131.70625 321.36506 131.70625 L 279.314 131.70625 C 278.16712 131.70625 277.2374 126.98146 277.2374 121.15313 C 277.2374 115.3248 278.16712 110.6 279.314 110.6 L 321.36506 110.6 C 322.51193 110.6 323.44165 115.3248 323.44165 121.15313 Z" fill="black"/>
            </g>
            <g id="Graphic_108">
              <path d="M 323.44165 121.15313 C 323.44165 126.98146 322.51193 131.70625 321.36506 131.70625 L 279.314 131.70625 C 278.16712 131.70625 277.2374 126.98146 277.2374 121.15313 C 277.2374 115.3248 278.16712 110.6 279.314 110.6 L 321.36506 110.6 C 322.51193 110.6 323.44165 115.3248 323.44165 121.15313 Z" fill="black"/>
              <path d="M 323.44165 121.15313 C 323.44165 126.98146 322.51193 131.70625 321.36506 131.70625 L 279.314 131.70625 C 278.16712 131.70625 277.2374 126.98146 277.2374 121.15313 C 277.2374 115.3248 278.16712 110.6 279.314 110.6 L 321.36506 110.6 C 322.51193 110.6 323.44165 115.3248 323.44165 121.15313 Z" stroke="black" stroke-linecap="round" stroke-linejoin="round" stroke-width="1"/>
            </g>
          </g>
          <g id="Group_110">
            <title>Graphic_46</title>
            <g id="Graphic_112">
              <path d="M 343.08755 165.35313 C 343.08755 171.18146 341.7625 175.90625 340.128 175.90625 L 280.19696 175.90625 C 278.56244 175.90625 277.2374 171.18146 277.2374 165.35313 C 277.2374 159.5248 278.56244 154.8 280.19696 154.8 L 340.128 154.8 C 341.7625 154.8 343.08755 159.5248 343.08755 165.35313 Z" fill="black"/>
            </g>
            <g id="Graphic_111">
              <path d="M 343.08755 165.35313 C 343.08755 171.18146 341.7625 175.90625 340.128 175.90625 L 280.19696 175.90625 C 278.56244 175.90625 277.2374 171.18146 277.2374 165.35313 C 277.2374 159.5248 278.56244 154.8 280.19696 154.8 L 340.128 154.8 C 341.7625 154.8 343.08755 159.5248 343.08755 165.35313 Z" fill="black"/>
              <path d="M 343.08755 165.35313 C 343.08755 171.18146 341.7625 175.90625 340.128 175.90625 L 280.19696 175.90625 C 278.56244 175.90625 277.2374 171.18146 277.2374 165.35313 C 277.2374 159.5248 278.56244 154.8 280.19696 154.8 L 340.128 154.8 C 341.7625 154.8 343.08755 159.5248 343.08755 165.35313 Z" stroke="black" stroke-linecap="round" stroke-linejoin="round" stroke-width="1"/>
            </g>
          </g>
        </g>
        <g id="Group_3">
          <title>Canvas_1_Stift</title>
          <g id="Group_4">
            <title>Group_60</title>
            <g id="Group_27">
              <title>Graphic_47</title>
              <g id="Graphic_28">
                <path d="M 277.21026 360.5076 L 398.5159 226.4776 L 418.7855 248.87336 L 297.47984 382.90334 Z" fill="#f0bf5e"/>
              </g>
            </g>
            <g id="Group_25">
              <title>Graphic_48</title>
              <g id="Graphic_26">
                <path d="M 297.47984 382.90334 L 418.7855 248.87336 L 439.0551 271.26912 L 317.7494 405.2991 Z" fill="#d8af62"/>
              </g>
            </g>
            <g id="Group_23">
              <title>Graphic_50</title>
              <g id="Graphic_24">
                <path d="M 404.7527 219.5866 L 434.3775 186.85435 C 437.82194 183.04855 443.4066 183.04855 446.85105 186.85435 L 454.64706 195.4681 C 458.09155 199.2739 458.09155 205.44431 454.64706 209.2501 L 425.0223 241.98235 C 421.5778 245.78815 415.9932 245.78815 412.5487 241.98235 L 404.7527 233.3686 C 401.3082 229.5628 401.3082 223.3924 404.7527 219.5866 Z" fill="#f15d4f"/>
              </g>
            </g>
            <g id="Group_21">
              <title>Graphic_51</title>
              <g id="Graphic_22">
                <path d="M 425.0223 241.98235 L 454.64706 209.2501 C 458.09155 205.44431 463.67616 205.44431 467.12066 209.2501 L 474.9166 217.86385 C 478.3611 221.66964 478.3611 227.84007 474.9166 231.64585 L 445.29187 264.3781 C 441.8474 268.1839 436.26277 268.1839 432.81827 264.3781 L 425.0223 255.76437 C 421.5778 251.95857 421.5778 245.78815 425.0223 241.98235 Z" fill="#d76154"/>
              </g>
            </g>
            <g id="Group_19">
              <title>Graphic_52</title>
              <g id="Graphic_20">
                <path d="M 398.5159 226.4776 L 420.872 201.77648 L 441.1416 224.17224 L 418.7855 248.87336 Z" fill="#f05d4e"/>
              </g>
            </g>
            <g id="Group_17">
              <title>Graphic_53</title>
              <g id="Graphic_18">
                <path d="M 418.7855 248.87336 L 441.1416 224.17224 L 461.4112 246.56799 L 439.0551 271.26912 Z" fill="#d76154"/>
              </g>
            </g>
            <g id="Group_15">
              <title>Graphic_54</title>
              <g id="Graphic_16">
                <path d="M 441.1416 224.17224 L 460.88384 202.3591 L 474.29295 217.17476 L 454.5507 238.9879 Z" fill="#d76154"/>
              </g>
            </g>
            <g id="Group_13">
              <title>Graphic_55</title>
              <g id="Graphic_14">
                <path d="M 427.7325 209.35658 L 447.47473 187.54344 L 460.88384 202.3591 L 441.1416 224.17224 Z" fill="#f05d4e"/>
              </g>
            </g>
            <g id="Group_11">
              <title>Graphic_56</title>
              <g id="Graphic_12">
                <path d="M 277.21026 360.5076 L 265.04852 418.73655 L 297.47984 382.90334 Z" fill="#dfcfc3"/>
              </g>
            </g>
            <g id="Group_9">
              <title>Graphic_57</title>
              <g id="Graphic_10">
                <path d="M 317.7494 405.2991 L 265.04852 418.73655 L 297.47984 382.90334 Z" fill="#cabbb1"/>
              </g>
            </g>
            <g id="Group_7">
              <title>Graphic_58</title>
              <g id="Graphic_8">
                <path d="M 262.20797 416.91354 L 268.07055 410.436 C 269.44835 408.9137 271.6822 408.9137 273.06 410.436 C 274.43778 411.9583 274.43778 414.42647 273.06 415.9488 L 267.1974 422.42633 C 265.8196 423.94865 263.58577 423.94865 262.20797 422.42633 C 260.83017 420.904 260.83017 418.43586 262.20797 416.91354 Z" fill="#ce2c00"/>
              </g>
            </g>
            <g id="Group_5">
              <title>Graphic_59</title>
              <g id="Graphic_6">
                <path d="M 261.5843 417.60264 L 257.8422 427.25004 L 266.57373 423.11543 Z" fill="#ce2c00"/>
              </g>
            </g>
          </g>
        </g>
      </g>
    </g>
  </g>
</svg>
